<svg width="180" height="38" viewBox="0 0 180 38" fill="none" xmlns="http://www.w3.org/2000/svg">
<path d="M21.7823 1.41173H21.778V0.52779C21.778 0.236004 22.0157 0 22.3096 0C22.3312 0 22.3571 0 22.3787 0.00429098C22.3874 0.00429098 22.396 0.00429098 22.4004 0.00429098C29.2894 1.21435 34.8993 6.09748 37.1077 12.5425C37.1077 12.5425 37.1077 12.5425 37.1077 12.5468C37.125 12.5983 37.1337 12.6498 37.1337 12.7099C37.1337 13.0017 36.896 13.2377 36.6021 13.2377H24.9978C24.9978 13.2377 24.9632 13.2377 24.946 13.2377C24.946 13.2377 24.9114 13.2377 24.8984 13.2291C24.8984 13.2291 24.8984 13.2291 24.8941 13.2291C24.7212 13.1948 24.5786 13.0746 24.5138 12.9158L23.5975 10.6931C22.3485 7.41052 21.7607 4.2824 21.7866 1.41602L21.7823 1.41173ZM10.9257 19.3738V19.3652C10.9517 19.3051 10.9646 19.2408 10.9646 19.1678C10.9646 18.876 10.7269 18.64 10.433 18.64H0.531592C0.242026 18.64 0.00432189 18.8717 0 19.1635C0 19.1678 0 19.1764 0 19.1807C0.133979 23.9437 2.04425 28.269 5.09119 31.5258C5.09119 31.5301 5.09983 31.5344 5.10415 31.5387C5.19923 31.6331 5.33321 31.6975 5.48016 31.6975C5.70057 31.6975 5.89074 31.5644 5.96853 31.3714L10.9257 19.3738ZM27.7336 34.9586C27.7336 34.9586 27.7292 34.9457 27.7249 34.9414L21.7478 20.4808C21.7478 20.4808 21.7434 20.4637 21.7391 20.4594C21.3156 19.3995 20.2697 18.6486 19.0509 18.6486C17.9056 18.6486 16.9159 19.3094 16.4405 20.2706L10.3725 34.95C10.3466 35.0144 10.3336 35.083 10.3336 35.1517C10.3336 35.3448 10.4417 35.5164 10.6016 35.6065C10.6059 35.6065 10.6146 35.6151 10.6232 35.6194C13.1645 36.8681 16.0299 37.5675 19.0552 37.5675C22.0805 37.5675 24.9459 36.8638 27.4829 35.6194C27.4829 35.6194 27.4915 35.6194 27.4915 35.6151C27.6558 35.525 27.7725 35.3534 27.7725 35.1517C27.7725 35.083 27.7595 35.0187 27.7336 34.9586ZM38.1104 19.1936C38.1104 19.1936 38.1104 19.1807 38.1104 19.1721C38.1104 18.876 37.8727 18.6443 37.5788 18.6443H27.6687C27.3749 18.6443 27.1371 18.8803 27.1371 19.1721C27.1371 19.245 27.1544 19.3137 27.1804 19.3781L32.1376 31.3756C32.2197 31.5644 32.4055 31.6975 32.6259 31.6975C32.7686 31.6975 32.9025 31.6417 32.9976 31.5473C33.0063 31.543 33.0106 31.5344 33.0192 31.5301C36.0619 28.2776 37.9721 23.9565 38.1061 19.1978L38.1104 19.1936ZM1.50834 13.2377H13.1169C13.1169 13.2377 13.1429 13.2377 13.1558 13.2377C13.359 13.2205 13.5318 13.0918 13.6053 12.9116L14.5259 10.6845C15.7792 7.40623 16.3627 4.2824 16.3367 1.41602V0.52779C16.3367 0.236004 16.099 0 15.8095 0C15.7835 0 15.7619 0 15.736 0.00429098C15.7274 0.00429098 15.7187 0.00429098 15.7101 0.00429098C8.8253 1.21864 3.21549 6.09748 1.007 12.5382C1.007 12.5382 1.007 12.5468 1.007 12.5511C0.989713 12.6026 0.981069 12.6584 0.981069 12.7142C0.981069 13.006 1.21877 13.242 1.51266 13.242L1.50834 13.2377Z" fill="url(#paint0_linear_7034_21873)"/>
<path d="M52.0231 6.02552H76.328C76.3524 6.02552 76.3671 6.00613 76.3671 5.98675V3.30684C76.3671 3.30684 76.3475 3.26807 76.328 3.26807H52.0231C51.9987 3.26807 51.984 3.28745 51.984 3.30684V5.98675C51.984 5.98675 52.0036 6.02552 52.0231 6.02552Z" fill="#005BAC"/>
<path d="M77.0711 24.6201C77.0711 24.373 76.8706 24.1694 76.6164 24.1694H68.9222C68.4285 24.1452 67.9983 23.7285 67.8419 23.2971C67.8223 23.239 67.793 23.1275 67.793 23.0403V11.5743H76.9733C76.9977 11.5695 77.0124 11.5501 77.0124 11.5307V8.85566C77.0124 8.85566 76.9928 8.81689 76.9733 8.81689H51.4219C51.3975 8.81689 51.3828 8.83628 51.3828 8.85566V11.5356C51.3828 11.5356 51.4024 11.5743 51.4219 11.5743H59.4779C59.4241 11.681 53.1035 23.3795 51.5783 26.2048C51.5686 26.2194 51.5637 26.2291 51.5588 26.2436C51.5344 26.2969 51.5197 26.3599 51.5197 26.4229C51.5197 26.6701 51.7201 26.8736 51.9743 26.8736H54.5114C54.5114 26.8736 54.5407 26.8639 54.5456 26.8542C54.5456 26.8542 62.7824 11.6228 62.8069 11.5792H64.8844V22.987C64.8893 25.1338 66.5709 26.8784 68.6338 26.8784H74.446C75.7463 26.8687 76.8657 25.9044 77.0613 24.6977C77.0711 24.6686 77.0711 24.6444 77.0711 24.6201Z" fill="#005BAC"/>
<path d="M111.441 9.26274C111.441 9.01559 111.241 8.81205 110.986 8.81205H98.9415V2.61384C98.9415 2.61384 98.922 2.57507 98.9024 2.57507H96.0428C96.0183 2.57507 96.0037 2.59446 96.0037 2.61384V8.81205H84.9413C84.9169 8.81205 84.9022 8.83143 84.9022 8.85082V11.5113C84.9022 11.5113 84.9218 11.5501 84.9413 11.5501H95.1873C95.1091 11.6616 86.662 23.2487 84.5503 26.1515C84.5356 26.1661 84.5307 26.1854 84.5209 26.2C84.4867 26.263 84.4672 26.3357 84.4672 26.4181C84.4672 26.6652 84.6676 26.8687 84.9218 26.8687H87.4979C87.4979 26.8687 87.5224 26.8687 87.5322 26.8542L96.6636 14.4142C97.172 13.7696 97.915 13.7696 98.4234 14.4433L107.535 26.8542C107.535 26.8542 107.555 26.8687 107.569 26.8687H110.146C110.395 26.8687 110.6 26.6701 110.6 26.4181C110.6 26.3211 110.566 26.2291 110.512 26.1564C110.512 26.1564 110.512 26.1467 110.502 26.1418C108.376 23.2196 99.9534 11.6664 99.8752 11.555H108.752C110.092 11.5453 111.241 10.5615 111.436 9.33543C111.436 9.30635 111.436 9.28212 111.436 9.26274" fill="#005BAC"/>
<path d="M160.588 11.3272C160.588 11.3272 160.608 11.366 160.627 11.366H163.267C163.267 11.366 163.306 11.3466 163.306 11.3272V7.65382C163.306 7.61505 163.306 7.48421 163.399 7.39698C163.487 7.31459 163.6 7.3049 163.629 7.3049H165.467V12.907C165.467 12.9458 165.457 13.0427 165.369 13.1203C165.281 13.1978 165.164 13.2075 165.115 13.2075H160.779C160.779 13.2075 160.759 13.2123 160.75 13.2172C160.745 13.2269 160.74 13.2366 160.74 13.2463V15.6984C160.74 15.6984 160.759 15.7372 160.779 15.7372H165.105C165.491 15.7372 166.479 15.6548 167.315 14.8843C168.116 14.1428 168.204 13.4159 168.204 13.1396V7.3049H170.629V13.1445C170.629 13.4207 170.717 14.1428 171.519 14.8843C172.355 15.6499 173.332 15.7372 173.714 15.7372H178.054C178.054 15.7372 178.074 15.7372 178.084 15.7226C178.094 15.7081 178.098 15.7033 178.098 15.6936V13.2414C178.098 13.2414 178.079 13.2026 178.059 13.2026H173.728C173.679 13.2026 173.557 13.193 173.469 13.1154C173.381 13.033 173.371 12.941 173.371 12.907V7.3049H175.19C175.244 7.3049 175.341 7.31459 175.425 7.39698C175.527 7.48905 175.517 7.62959 175.517 7.64898V11.3223C175.517 11.3223 175.522 11.3417 175.527 11.3514C175.532 11.3611 175.542 11.366 175.556 11.366H178.196C178.196 11.366 178.235 11.3466 178.235 11.3272V7.68775C178.235 7.68775 178.318 6.52952 177.316 5.59422C176.744 5.05629 176.011 4.78006 175.136 4.77522H175.068C175.068 4.77522 175.058 4.77037 175.053 4.77037H170.727V3.1663C170.727 3.14207 170.707 3.12753 170.688 3.12753H168.033C168.033 3.12753 167.994 3.14692 167.994 3.1663V4.77037H160.627C160.627 4.77037 160.588 4.78491 160.588 4.8043V11.3272Z" fill="#005BAC"/>
<path d="M159.65 6.96568H156.937V3.07423C156.937 3.05 156.917 3.03546 156.898 3.03546H154.302C154.302 3.03546 154.263 3.05485 154.263 3.07423V6.96568H151.344C151.344 6.96568 151.305 6.98506 151.305 7.00445V9.47598C151.305 9.47598 151.325 9.51474 151.344 9.51474H154.263V15.5676C154.077 15.679 152.61 16.5319 151.379 17.2492C151.369 17.2589 151.359 17.2686 151.359 17.2831V19.4687C151.364 19.7159 151.564 19.9097 151.814 19.9097C151.897 19.9097 151.975 19.8903 152.039 19.8515L154.263 18.5576V19.6141C154.263 20.8838 154.258 22.8222 154.258 23.2875C154.233 23.8399 153.95 24.2276 153.544 24.2518H151.369C151.369 24.2518 151.349 24.2518 151.34 24.2664C151.335 24.2664 151.33 24.2809 151.33 24.2955V26.8348C151.33 26.8348 151.349 26.8736 151.369 26.8736H153.632C153.632 26.8736 153.647 26.8736 153.652 26.8736H153.701C153.701 26.8736 153.725 26.8736 153.735 26.8736H153.852C153.852 26.8736 153.872 26.8736 153.886 26.8639C155.602 26.7331 156.946 25.1678 156.951 23.3068V23.2923C156.951 23.1469 156.946 19.5947 156.942 17.8889V17.002L159.645 15.427C159.645 15.427 159.664 15.4076 159.664 15.3931V13.2123C159.664 12.9652 159.464 12.7617 159.21 12.7617C159.127 12.7617 159.048 12.7859 158.98 12.8247L156.937 14.012V9.51959H159.65C159.65 9.51959 159.689 9.50021 159.689 9.48082V7.00929C159.689 6.98506 159.674 6.96568 159.65 6.96568Z" fill="#005BAC"/>
<path d="M178.504 24.7171C178.504 24.4699 178.304 24.2664 178.05 24.2664H170.6V20.1617H178.142C178.142 20.1617 178.182 20.1423 178.182 20.1229V17.6562C178.182 17.6562 178.162 17.6175 178.142 17.6175H160.315C160.315 17.6175 160.276 17.6369 160.276 17.6562V20.1229C160.276 20.1229 160.295 20.1617 160.315 20.1617H167.857V24.2664H160.315C160.315 24.2664 160.276 24.2858 160.276 24.3051V26.8348C160.276 26.8348 160.28 26.8542 160.285 26.8639C160.295 26.8736 160.305 26.8736 160.315 26.8736H175.943C177.233 26.8639 178.309 25.9577 178.499 24.7849C178.499 24.7849 178.499 24.7413 178.499 24.7171" fill="#005BAC"/>
<path d="M145.087 12.277L140.81 6.21937C140.786 6.17091 140.698 6.04975 140.424 5.67176L139.964 5.02237C139.964 5.02237 139.955 5.01268 139.95 5.00783C139.945 4.99814 139.925 4.97876 139.911 4.95937C139.876 4.89153 139.525 4.27122 138.63 3.77207C137.765 3.28746 136.772 3.24869 136.489 3.24869H122.327C122.327 3.24869 122.308 3.25353 122.298 3.26323C122.298 3.26807 122.288 3.28261 122.288 3.2923V5.55545C122.107 5.81229 118.749 10.5276 117.512 12.2722V12.277C117.459 12.3497 117.429 12.4418 117.429 12.5387C117.429 12.7859 117.635 12.9894 117.884 12.9894H120.348C120.348 12.9894 120.372 12.9846 120.382 12.97C120.489 12.8198 120.758 12.4418 121.115 11.9378H130.041V15.3301H120.48C120.455 15.3301 120.44 15.3495 120.44 15.3689V17.8356C120.44 17.8356 120.46 17.8743 120.48 17.8743H130.041V24.2761H126.566C126.419 24.0289 124.947 21.4023 124.16 19.9969C124.151 19.9824 124.141 19.9775 124.126 19.9775H121.565C121.315 19.9775 121.11 20.1811 121.11 20.4282C121.11 20.5106 121.135 20.5882 121.174 20.656L123.212 24.2761H118.588C118.563 24.2761 118.549 24.2955 118.549 24.3148V26.7815C118.549 26.7815 118.568 26.8203 118.588 26.8203H141.602C142.912 26.8057 144.002 25.9334 144.208 24.8091V24.7994C144.208 24.7994 144.217 24.7461 144.217 24.7219C144.217 24.4748 144.012 24.2712 143.763 24.2712H139.554L141.592 20.6463C141.631 20.5833 141.651 20.5058 141.651 20.4282C141.651 20.1811 141.446 19.9775 141.196 19.9775H138.635C138.635 19.9775 138.606 19.9872 138.601 19.9969L136.196 24.2761H132.847V17.8743H142.272C142.272 17.8743 142.311 17.8549 142.311 17.8356V15.3689C142.311 15.3689 142.291 15.3301 142.272 15.3301H132.847V11.9378H141.519C141.866 12.4273 142.13 12.8004 142.252 12.97C142.262 12.9797 142.272 12.9894 142.286 12.9894H144.74C144.99 12.9894 145.195 12.7907 145.195 12.5387C145.175 12.437 145.146 12.3497 145.092 12.277M122.919 9.39359C122.919 9.39359 125.417 5.88983 125.48 5.79775H136.909C136.978 5.8026 137.1 5.82683 137.139 5.84622L137.247 5.93345C137.31 6.03037 137.677 6.54406 139.696 9.39359H122.919Z" fill="#005BAC"/>
<path d="M67.6234 36.7276C66.8767 36.7276 66.2036 36.5087 65.7409 36.1021C65.3412 35.7476 65.1204 35.268 65.1204 34.7675C65.1204 34.2253 65.3202 33.8187 65.7619 33.4538C66.2667 33.0263 66.9083 32.8074 67.6655 32.8074C68.3701 32.8074 68.9696 33.0367 69.3798 33.4434L69.527 33.5998V32.9429C69.527 32.9429 69.527 32.9221 69.548 32.9221H70.5051C70.5051 32.9221 70.5261 32.9221 70.5261 32.9429V36.5817C70.5261 36.5817 70.5261 36.6025 70.5051 36.6025H69.548C69.548 36.6025 69.527 36.6025 69.527 36.5817V36.5504C69.5165 36.394 69.3903 36.2793 69.2325 36.2793C69.1799 36.2793 69.1379 36.2897 69.0853 36.321C68.6962 36.5712 68.1388 36.7276 67.6339 36.7276H67.6234ZM67.8758 36.0082C68.4122 36.0082 68.8749 35.8414 69.1694 35.539C69.3798 35.3201 69.4849 35.0594 69.4849 34.7675C69.4849 34.4756 69.3798 34.2253 69.1694 34.0064C68.8749 33.704 68.4122 33.5372 67.8969 33.5372H67.8548C67.3079 33.5372 66.8346 33.7145 66.5296 34.0272C66.3193 34.2462 66.2036 34.5173 66.2036 34.8092C66.2036 35.0699 66.3088 35.3097 66.5086 35.5182C66.8136 35.831 67.3079 36.0187 67.8338 36.0187H67.8548H67.8758V36.0082Z" fill="#005BAC"/>
<path d="M82.4735 36.7276C81.7268 36.7276 81.0537 36.5087 80.591 36.1021C80.1913 35.7476 79.9705 35.268 79.9705 34.7675C79.9705 34.2253 80.1703 33.8187 80.612 33.4538C81.1168 33.0263 81.7584 32.8074 82.5156 32.8074C83.2202 32.8074 83.8197 33.0367 84.2299 33.4434L84.3771 33.5998V32.9429C84.3771 32.9429 84.3771 32.9221 84.3981 32.9221H85.3552C85.3552 32.9221 85.3762 32.9221 85.3762 32.9429V36.5817C85.3762 36.5817 85.3762 36.6025 85.3552 36.6025H84.3981C84.3981 36.6025 84.3771 36.6025 84.3771 36.5817V36.5504C84.3666 36.394 84.2404 36.2793 84.0826 36.2793C84.03 36.2793 83.988 36.2897 83.9354 36.321C83.5463 36.5712 82.9888 36.7276 82.484 36.7276H82.4735ZM82.7259 36.0082C83.2623 36.0082 83.725 35.8414 84.0195 35.539C84.2299 35.3201 84.335 35.0594 84.335 34.7675C84.335 34.4756 84.2299 34.2253 84.0195 34.0064C83.725 33.704 83.2623 33.5372 82.747 33.5372H82.7049C82.158 33.5372 81.6847 33.7145 81.3797 34.0272C81.1694 34.2462 81.0537 34.5173 81.0537 34.8092C81.0537 35.0699 81.1589 35.3097 81.3587 35.5182C81.6637 35.831 82.158 36.0187 82.6839 36.0187H82.7049H82.7259V36.0082Z" fill="#005BAC"/>
<path d="M61.6288 36.7277C60.9663 36.7277 60.4509 36.5713 59.9671 36.2064C59.6306 35.9561 59.4413 35.5182 59.4413 35.0178V32.9429C59.4413 32.9429 59.4413 32.9221 59.4623 32.9221H60.514C60.514 32.9221 60.5351 32.9221 60.5351 32.9429V34.7258C60.5351 35.0282 60.5561 35.3305 60.7349 35.5599C60.9452 35.831 61.3554 35.9978 61.8287 35.9978C63.1538 35.9978 63.1538 35.0386 63.1538 34.7258V32.9429C63.1538 32.9429 63.1538 32.9221 63.1748 32.9221H64.2265C64.2265 32.9221 64.2476 32.9221 64.2476 32.9429V36.5817C64.2476 36.5817 64.2476 36.6026 64.2265 36.6026H63.301C63.301 36.6026 63.28 36.6025 63.28 36.5817C63.28 36.4462 63.1748 36.3315 63.0381 36.3315C62.996 36.3315 62.954 36.3419 62.9224 36.3627C62.5123 36.6651 62.0074 36.7277 61.6604 36.7277H61.6288Z" fill="#005BAC"/>
<path d="M75.2483 36.6025C75.2483 36.6025 75.2273 36.6025 75.2273 36.5817V34.7988C75.2273 34.4964 75.2063 34.1941 75.0275 33.9647C74.8171 33.6936 74.407 33.5268 73.9337 33.5268C72.6085 33.5268 72.6085 34.486 72.6085 34.7988V36.5817C72.6085 36.5817 72.6085 36.6025 72.5875 36.6025H71.5358C71.5358 36.6025 71.5148 36.6025 71.5148 36.5817V32.9429C71.5148 32.9429 71.5148 32.9221 71.5358 32.9221H72.4613C72.4613 32.9221 72.4823 32.9221 72.4823 32.9429C72.4823 33.0785 72.5875 33.1931 72.7242 33.1931C72.7663 33.1931 72.8084 33.1827 72.8504 33.1619C73.2606 32.8595 73.7654 32.8074 74.1125 32.8074C74.7751 32.8074 75.2904 32.9638 75.7742 33.3287C76.1107 33.5789 76.3 34.0168 76.3 34.5173V36.5921C76.3 36.5921 76.3 36.6129 76.279 36.6129H75.2273L75.2483 36.6025Z" fill="#005BAC"/>
<path d="M77.7094 36.6025C77.7094 36.6025 77.6884 36.6025 77.6884 36.5817V33.5685H77.0889C77.0889 33.5685 77.0679 33.5685 77.0679 33.5476V32.9429C77.0679 32.9429 77.0679 32.9221 77.0889 32.9221H77.6884V31.6501C77.6884 31.6501 77.6884 31.6292 77.7094 31.6292H78.7716C78.7716 31.6292 78.7927 31.6292 78.7927 31.6501V32.9221H79.5394C79.5394 32.9221 79.5604 32.9221 79.5604 32.9429V33.5476C79.5604 33.5476 79.5604 33.5685 79.5394 33.5685H78.7927V36.5817C78.7927 36.5817 78.7927 36.6025 78.7716 36.6025H77.7094Z" fill="#005BAC"/>
<path d="M55.7392 36.6026C55.7392 36.6026 55.7181 36.6026 55.7181 36.5817V34.7572L53.3623 31.8378C53.3623 31.8378 53.3623 31.8274 53.3623 31.817C53.3623 31.7961 53.3518 31.7857 53.3518 31.7648C53.3518 31.7023 53.3939 31.6501 53.457 31.6397C53.457 31.6397 53.4675 31.6397 53.478 31.6397H54.5823C54.5823 31.6397 54.5823 31.6397 54.5928 31.6397C54.6664 31.7335 55.3921 32.6198 55.9285 33.2871C56.0336 33.4226 56.2019 33.506 56.3702 33.506C56.528 33.506 56.6647 33.4434 56.7804 33.3288C56.9697 33.089 58.0529 31.7648 58.1476 31.6397C58.1476 31.6397 58.1476 31.6397 58.1581 31.6397H59.2519C59.2519 31.6397 59.2624 31.6397 59.2729 31.6397C59.336 31.6397 59.3781 31.7023 59.3781 31.7648C59.3781 31.7857 59.3781 31.8065 59.357 31.8274C59.357 31.8274 59.357 31.8274 59.357 31.8378L57.0012 34.7572V36.5817C57.0012 36.5817 57.0012 36.6026 56.9802 36.6026H55.7392Z" fill="#005BAC"/>
<path d="M99.5929 32.897H100.649C100.649 32.897 100.663 32.897 100.663 32.9101V36.563C100.663 36.563 100.663 36.5761 100.649 36.5761H99.5929C99.5929 36.5761 99.5797 36.5761 99.5797 36.563V32.9101C99.5797 32.9101 99.5797 32.897 99.5929 32.897Z" fill="#005BAC"/>
<path d="M122.19 36.7201C121.49 36.7201 120.777 36.5106 120.275 36.1571C119.747 35.7905 119.456 35.2799 119.456 34.73C119.456 33.6564 120.684 32.7923 122.19 32.7923C123.167 32.7923 124.118 33.2112 124.567 33.8266C124.567 33.8528 124.58 33.8659 124.58 33.892C124.58 33.9444 124.541 33.9968 124.475 34.0099H124.462H123.431C123.141 33.6695 122.731 33.5124 122.177 33.5124C121.239 33.5124 120.566 34.023 120.566 34.7431C120.566 35.4632 121.266 36 122.243 36C122.705 36 123.154 35.8167 123.431 35.5287H124.475C124.475 35.5287 124.58 35.5941 124.58 35.6596C124.58 35.6858 124.58 35.7119 124.554 35.725C124.092 36.3404 123.167 36.7332 122.203 36.7332L122.19 36.7201Z" fill="#005BAC"/>
<path d="M125.597 36.5892C125.597 36.5892 125.584 36.5892 125.584 36.5761V32.9232V32.9101H126.654C126.654 32.9101 126.667 32.9101 126.667 32.9232V36.5761V36.5892H125.597Z" fill="#005BAC"/>
<path d="M133.931 36.5892C133.931 36.5892 133.904 36.5892 133.904 36.5761V31.627C133.904 31.627 133.904 31.6139 133.931 31.6139H134.987C134.987 31.6139 135.001 31.6139 135.001 31.627V36.5761C135.001 36.5761 135.001 36.5892 134.987 36.5892H133.931Z" fill="#005BAC"/>
<path d="M109.908 36.7201C109.155 36.7201 108.481 36.4976 108.019 36.0917C107.61 35.7382 107.385 35.2537 107.385 34.7431C107.385 34.2063 107.583 33.8004 108.032 33.4208C108.547 32.9887 109.181 32.7661 109.947 32.7661C110.647 32.7661 111.255 33.0018 111.664 33.4077L111.81 33.5648V32.9101V32.897H112.774C112.774 32.897 112.787 32.897 112.787 32.9101V36.563C112.787 36.563 112.787 36.5761 112.774 36.5761H111.81C111.81 36.5761 111.796 36.5761 111.796 36.563V36.5368C111.796 36.3797 111.651 36.2619 111.506 36.2619C111.453 36.2619 111.4 36.2619 111.361 36.3012C110.964 36.5499 110.41 36.707 109.895 36.707L109.908 36.7201ZM110.159 36C110.7 36 111.162 35.8298 111.453 35.5287C111.664 35.3061 111.77 35.0443 111.77 34.7562C111.77 34.4682 111.664 34.2063 111.453 33.9968C111.162 33.6957 110.7 33.5255 110.172 33.5255H110.132C109.578 33.5255 109.115 33.6957 108.798 34.0099C108.587 34.2325 108.468 34.5075 108.468 34.7955C108.468 35.0574 108.574 35.293 108.772 35.5025C109.076 35.8167 109.578 36 110.106 36H110.145H110.159Z" fill="#005BAC"/>
<path d="M129.982 36.7201C129.229 36.7201 128.556 36.4976 128.093 36.0917C127.684 35.7382 127.459 35.2537 127.459 34.7431C127.459 34.2063 127.658 33.8004 128.107 33.4208C128.608 32.9887 129.256 32.7661 130.022 32.7661C130.722 32.7661 131.329 33.0018 131.738 33.4077L131.884 33.5648V32.9101V32.897H132.848C132.848 32.897 132.861 32.897 132.861 32.9101V36.563V36.5761H131.897C131.897 36.5761 131.884 36.5761 131.884 36.563V36.5368C131.884 36.3797 131.738 36.2619 131.593 36.2619C131.54 36.2619 131.488 36.2619 131.448 36.3012C131.052 36.5499 130.497 36.707 129.982 36.707V36.7201ZM130.233 36C130.774 36 131.237 35.8298 131.527 35.5287C131.738 35.3061 131.844 35.0443 131.844 34.7562C131.844 34.4682 131.738 34.2063 131.527 33.9968C131.237 33.6957 130.774 33.5255 130.246 33.5255H130.206C129.652 33.5255 129.19 33.6957 128.886 34.0099C128.675 34.2325 128.556 34.5075 128.556 34.7955C128.556 35.0574 128.661 35.293 128.859 35.5025C129.163 35.8167 129.665 36 130.193 36H130.233Z" fill="#005BAC"/>
<path d="M105.51 36.5892C105.51 36.5892 105.497 36.5892 105.497 36.5761V34.7824C105.497 34.4813 105.47 34.1671 105.299 33.9445C105.087 33.6695 104.678 33.5124 104.202 33.5124C102.868 33.5124 102.868 34.4682 102.868 34.7955V36.5892C102.868 36.5892 102.868 36.6023 102.855 36.6023H101.812C101.812 36.6023 101.799 36.6023 101.799 36.5892V32.9363V32.9232H102.736C102.736 32.9232 102.75 32.9232 102.75 32.9363C102.75 33.0804 102.855 33.1851 102.987 33.1851C103.027 33.1851 103.067 33.1851 103.119 33.1458C103.529 32.8447 104.031 32.7792 104.387 32.7792C105.048 32.7792 105.563 32.9363 106.051 33.3029C106.395 33.5517 106.58 33.9969 106.58 34.5075V36.5892C106.58 36.5892 106.58 36.6023 106.566 36.6023H105.523L105.51 36.5892Z" fill="#005BAC"/>
<path d="M117.607 36.5892C117.607 36.5892 117.594 36.5892 117.594 36.5761V34.7824C117.594 34.4813 117.568 34.1671 117.396 33.9445C117.185 33.6695 116.775 33.5124 116.3 33.5124C114.966 33.5124 114.966 34.4682 114.966 34.7955V36.5892C114.966 36.5892 114.966 36.6023 114.953 36.6023H113.909C113.909 36.6023 113.883 36.6023 113.883 36.5892V32.9363V32.9232H114.821C114.821 32.9232 114.834 32.9232 114.834 32.9363C114.834 33.0804 114.939 33.1851 115.085 33.1851C115.124 33.1851 115.164 33.1851 115.204 33.1458C115.613 32.8447 116.115 32.7792 116.471 32.7792C117.145 32.7792 117.647 32.9363 118.149 33.3029C118.479 33.5517 118.677 33.9969 118.677 34.5075V36.5892V36.6023H117.62L117.607 36.5892Z" fill="#005BAC"/>
<path d="M93.9407 36.5892C93.9407 36.5892 93.9275 36.5892 93.9275 36.5761V32.8708C93.9275 32.3471 94.3105 32.0329 94.4161 31.9544C94.7463 31.7187 94.9444 31.6139 95.5387 31.6139H98.6291C98.6291 31.6139 98.6423 31.6139 98.6423 31.627V32.3471V32.3602H95.5651C95.3538 32.3733 95.1821 32.5435 95.1557 32.753V33.735H96.9254H98.3122C98.3914 33.735 98.4442 33.7873 98.4442 33.8659C98.3782 34.2063 98.0877 34.4551 97.7575 34.4813H97.6782C97.3349 34.4813 95.9878 34.4813 95.1821 34.4813C95.1821 34.9264 95.1821 35.6596 95.1821 36.1441C95.1821 36.3666 95.1821 36.5368 95.1821 36.5892V36.6023H93.9803L93.9407 36.5892Z" fill="#005BAC"/>
<path d="M158.976 36.7276C158.351 36.7276 157.788 36.5184 157.401 36.1297C157.067 35.7909 156.882 35.3326 156.882 34.8543C156.882 34.3361 157.049 33.9475 157.419 33.5987C157.841 33.1902 158.378 32.9809 159.011 32.9809C159.601 32.9809 160.102 33.2001 160.446 33.5887L160.569 33.7382V31.5569C160.569 31.5569 160.569 31.537 160.586 31.537H161.387C161.387 31.537 161.405 31.537 161.405 31.5569V36.5881C161.405 36.5881 161.405 36.608 161.387 36.608H160.586C160.586 36.608 160.569 36.608 160.569 36.5881V36.5582C160.56 36.4087 160.454 36.2991 160.322 36.2991C160.278 36.2991 160.243 36.3091 160.199 36.339C159.874 36.5781 159.407 36.7276 158.985 36.7276H158.976ZM159.187 36.0014C159.636 36.0014 160.023 35.842 160.27 35.553C160.446 35.3438 160.534 35.1333 160.534 34.8543C160.534 34.5752 160.446 34.3361 160.27 34.1268C160.023 33.8379 159.636 33.6784 159.205 33.6784H159.17C158.712 33.6784 158.316 33.8478 158.061 34.1468C157.885 34.356 157.788 34.6151 157.788 34.8941C157.788 35.1432 157.876 35.3338 158.043 35.5331C158.298 35.832 158.712 36.0114 159.152 36.0114H159.17H159.187V36.0014Z" fill="#005BAC"/>
<path d="M162.774 32.9047H163.831C163.831 32.9047 163.844 32.9047 163.844 32.9178V36.5707C163.844 36.5707 163.844 36.5838 163.831 36.5838H162.774C162.774 36.5838 162.761 36.5838 162.761 36.5707V32.9178C162.761 32.9178 162.761 32.9047 162.774 32.9047Z" fill="#005BAC"/>
<path d="M168.691 36.5969C168.691 36.5969 168.678 36.5969 168.678 36.5838V34.7901C168.678 34.489 168.651 34.1747 168.48 33.9521C168.268 33.6772 167.859 33.5201 167.384 33.5201C166.05 33.5201 166.05 34.4759 166.05 34.8032V36.5969C166.05 36.5969 166.05 36.61 166.037 36.61H164.993C164.993 36.61 164.98 36.61 164.98 36.5969V32.944V32.9309H165.918C165.918 32.9309 165.931 32.9309 165.931 32.944C165.931 33.088 166.037 33.1928 166.169 33.1928C166.208 33.1928 166.248 33.1928 166.301 33.1535C166.71 32.8523 167.212 32.7869 167.569 32.7869C168.229 32.7869 168.744 32.944 169.233 33.3106C169.576 33.5594 169.761 34.0045 169.761 34.5151V36.5969C169.761 36.5969 169.761 36.61 169.748 36.61H168.704L168.691 36.5969Z" fill="#005BAC"/>
<path d="M154.959 36.7195C154.959 36.7195 154.932 36.7195 154.932 36.7064V31.7574C154.932 31.7574 154.932 31.7443 154.959 31.7443H156.015C156.015 31.7443 156.028 31.7443 156.028 31.7574V36.7064C156.028 36.7064 156.028 36.7195 156.015 36.7195H154.959Z" fill="#005BAC"/>
<path fill-rule="evenodd" clip-rule="evenodd" d="M144.648 36.7195C144.648 36.7195 144.626 36.7195 144.626 36.7064V34.6522L144.625 34.651L144.625 33.6461L144.626 33.6448V31.7574C144.626 31.7574 144.626 31.7443 144.648 31.7443H145.561C145.561 31.7443 145.572 31.7443 145.572 31.7574V33.621L148.307 33.621V31.7574C148.307 31.7574 148.307 31.7443 148.329 31.7443H149.242C149.242 31.7443 149.253 31.7443 149.253 31.7574V36.7064C149.253 36.7064 149.253 36.7195 149.242 36.7195H148.329C148.329 36.7195 148.307 36.7195 148.307 36.7064V34.6636L145.572 34.6636V36.7064C145.572 36.7064 145.572 36.7195 145.561 36.7195H144.648Z" fill="#005BAC"/>
<path d="M177.469 36.6337C177.221 36.6337 176.967 36.6206 176.706 36.5944C176.449 36.5715 176.185 36.5354 175.921 36.4961C175.914 36.4961 175.908 36.4896 175.908 36.4797V35.9653V35.9555C175.908 35.8899 175.96 35.8342 176.03 35.8342C176.04 35.8342 176.05 35.8342 176.063 35.8375C176.063 35.8375 176.066 35.8375 176.069 35.8375C176.244 35.8932 176.422 35.9391 176.594 35.9686C176.818 36.0079 177.053 36.0308 177.287 36.0308C177.63 36.0308 177.914 35.9882 178.129 35.903C178.347 35.8178 178.455 35.7064 178.455 35.5754C178.455 35.4181 178.155 35.2182 177.564 34.979C177.485 34.9462 177.426 34.9233 177.383 34.9036C176.802 34.6775 176.406 34.4875 176.211 34.34C176.013 34.1893 175.911 34.0222 175.911 33.8387C175.911 33.534 176.142 33.2784 176.597 33.0818C177.053 32.8852 177.653 32.7869 178.383 32.7869C178.624 32.7869 178.861 32.8 179.096 32.8229C179.323 32.8459 179.551 32.8852 179.776 32.9311C179.782 32.9311 179.789 32.9376 179.789 32.9474V33.4422C179.789 33.4422 179.789 33.4422 179.789 33.4455C179.789 33.511 179.733 33.5667 179.667 33.5667C179.657 33.5667 179.644 33.5667 179.63 33.5602H179.627C179.495 33.511 179.36 33.4717 179.215 33.4422C179.007 33.4029 178.766 33.38 178.498 33.38C178.198 33.38 177.947 33.4193 177.752 33.4979C177.558 33.5766 177.459 33.6814 177.459 33.8059C177.459 33.9698 177.746 34.1631 178.314 34.3826C178.439 34.4318 178.515 34.4613 178.564 34.4777C179.102 34.6841 179.479 34.8741 179.686 35.038C179.894 35.2018 180 35.3886 180 35.5885C180 35.8998 179.769 36.1553 179.31 36.3421C178.851 36.5289 178.234 36.6239 177.469 36.6239V36.6337Z" fill="#005BAC"/>
<path d="M153.75 34.8751C153.75 35.6961 153.019 36.415 152.05 36.415C151.08 36.415 150.349 35.6961 150.349 34.8751C150.349 34.0541 151.08 33.3352 152.05 33.3352C153.019 33.3352 153.75 34.0541 153.75 34.8751Z" stroke="#005BAC" stroke-width="0.806349"/>
<path d="M171.749 36.9914C171.804 37.0657 171.874 37.1268 171.957 37.1748C172.046 37.2228 172.135 37.2599 172.223 37.2861C172.318 37.3123 172.41 37.3298 172.498 37.3385C172.593 37.3516 172.676 37.3582 172.748 37.3582C173.093 37.3582 173.362 37.2796 173.556 37.1224C173.751 36.9652 173.848 36.6967 173.848 36.3169V36.1466V36.1335L173.856 36.1007C173.856 36.0964 173.853 36.092 173.848 36.0876C173.848 36.0833 173.848 36.0789 173.848 36.0746C173.831 36.1313 173.781 36.1881 173.698 36.2448C173.62 36.3016 173.52 36.354 173.398 36.402C173.276 36.4457 173.137 36.4806 172.982 36.5068C172.826 36.533 172.665 36.5461 172.498 36.5461C172.187 36.5461 171.915 36.4937 171.682 36.3889C171.449 36.2798 171.254 36.1357 171.099 35.9567C170.943 35.7777 170.83 35.5724 170.757 35.341C170.685 35.1096 170.649 34.8673 170.649 34.6141C170.649 34.2735 170.707 33.9876 170.824 33.7562C170.946 33.5248 171.099 33.337 171.282 33.1929C171.471 33.0445 171.679 32.9397 171.907 32.8786C172.14 32.8174 172.368 32.7869 172.59 32.7869C172.862 32.7869 173.109 32.824 173.331 32.8982C173.559 32.9724 173.731 33.0707 173.848 33.1929L173.956 32.8196H174.856L174.848 36.5133C174.825 36.7797 174.756 37.0067 174.639 37.1945C174.528 37.3822 174.384 37.5372 174.206 37.6594C174.028 37.7817 173.823 37.869 173.59 37.9214C173.356 37.9738 173.106 38 172.84 38C172.529 38 172.221 37.9563 171.915 37.869C171.615 37.7861 171.365 37.6442 171.166 37.4433L171.749 36.9914ZM173.915 34.6403C173.915 34.4656 173.887 34.3041 173.831 34.1557C173.776 34.0072 173.701 33.8762 173.606 33.7627C173.512 33.6492 173.395 33.5597 173.256 33.4942C173.118 33.4287 172.968 33.396 172.807 33.396C172.64 33.396 172.487 33.4309 172.348 33.5007C172.215 33.5662 172.101 33.6557 172.007 33.7693C171.912 33.8828 171.84 34.0159 171.79 34.1687C171.74 34.3216 171.715 34.4831 171.715 34.6534C171.715 34.828 171.74 34.9939 171.79 35.1511C171.846 35.3039 171.921 35.4371 172.015 35.5506C172.115 35.6641 172.232 35.7558 172.365 35.8257C172.504 35.8912 172.657 35.9239 172.823 35.9239C172.995 35.9239 173.148 35.8912 173.281 35.8257C173.415 35.7558 173.526 35.6641 173.615 35.5506C173.709 35.4327 173.781 35.2952 173.831 35.138C173.887 34.9808 173.915 34.8149 173.915 34.6403Z" fill="#005BAC"/>
<defs>
<linearGradient id="paint0_linear_7034_21873" x1="19.0552" y1="0" x2="19.0552" y2="37.5718" gradientUnits="userSpaceOnUse">
<stop stop-color="#004098"/>
<stop offset="1" stop-color="#00A0E9"/>
</linearGradient>
</defs>
</svg>
