<svg width="145" height="145" viewBox="0 0 145 145" fill="none" xmlns="http://www.w3.org/2000/svg">
<g clip-path="url(#clip0_79_199)">
<path d="M72.0395 1.72021C52.6995 1.72021 37.0195 18.1102 37.0195 38.3402H37.0395C37.0395 39.3002 37.0995 40.2402 37.1295 41.1902C47.1295 37.8202 52.9495 31.3702 56.9195 23.3502C56.9195 23.3502 56.9195 23.3502 56.9195 23.3402H56.9295V23.3502C62.4695 34.6402 78.6995 42.6602 95.2295 42.6602C99.3195 42.6602 103.26 42.1702 106.96 41.2602C107 40.2902 107.06 39.3202 107.06 38.3402C107.06 18.1202 91.3795 1.72021 72.0395 1.72021Z" fill="#B2CCFF" stroke="#B2CCFF" stroke-width="3.4" stroke-linecap="round" stroke-linejoin="round"/>
<path d="M4.29923 142.67L1.73923 108.03C1.22923 101.11 6.83923 94.55 14.2192 93.45L48.2692 88.77L69.8992 141.18C70.6192 143.11 73.5492 143.11 74.2692 141.18L95.8992 88.77L129.949 93.45C137.329 94.55 142.939 101.11 142.429 108.03L139.869 142.67H4.29923Z" fill="#B2CCFF" stroke="#B2CCFF" stroke-width="3.4" stroke-linecap="round" stroke-linejoin="round"/>
<path d="M37.7486 48.5702C37.3086 45.2702 37.0786 41.8402 37.0786 38.3202H37.0586C37.0586 18.1002 52.7386 1.7002 72.0786 1.7002C91.4186 1.7002 107.099 18.0902 107.099 38.3202C107.099 41.8402 106.869 45.2702 106.429 48.5702H106.409C105.849 53.3502 102.239 56.7002 97.6986 56.7002C97.2286 56.7002 96.7786 56.6402 96.3286 56.5602C92.4986 72.1002 83.0986 83.1102 72.0886 83.1102C61.0786 83.1102 51.6686 72.1002 47.8486 56.5602C47.3986 56.6302 46.9486 56.7002 46.4786 56.7002C41.9386 56.7002 38.3286 53.3402 37.7686 48.5702H37.7486Z" stroke="white" stroke-width="3.4" stroke-linecap="round" stroke-linejoin="round"/>
<path d="M107.019 41.2403C103.309 42.1503 99.369 42.6503 95.269 42.6503C78.739 42.6503 62.499 34.6203 56.959 23.3203" stroke="white" stroke-width="3.4" stroke-linecap="round" stroke-linejoin="round"/>
<path d="M72.0801 93.3901V113.17" stroke="white" stroke-width="3.4" stroke-linecap="round" stroke-linejoin="round"/>
<path d="M100.539 124.37H115.449" stroke="white" stroke-width="3.4" stroke-linecap="round" stroke-linejoin="round"/>
<path d="M4.29923 142.67L1.73923 108.03C1.22923 101.11 6.83923 94.55 14.2192 93.45L48.2692 88.77L69.8992 141.18C70.6192 143.11 73.5492 143.11 74.2692 141.18L95.8992 88.77L129.949 93.45C137.329 94.55 142.939 101.11 142.429 108.03L139.869 142.67" stroke="white" stroke-width="3.4" stroke-linecap="round" stroke-linejoin="round"/>
</g>
<defs>
<clipPath id="clip0_79_199">
<rect width="144.15" height="144.37" fill="white"/>
</clipPath>
</defs>
</svg>
