<svg xmlns="http://www.w3.org/2000/svg" version="1.1" xmlns:xlink="http://www.w3.org/1999/xlink" width="512" height="512" x="0" y="0" viewBox="0 0 496 496" style="enable-background:new 0 0 512 512" xml:space="preserve" class=""><g><path d="M447.812 390.192c-5.368-32.232-27.968-58.68-58.976-69.016l-68.832-22.944V288h-16v15.008l-11.944 47.768L259.748 312h-23.496l-32.312 38.776-11.936-47.768V288h-16v10.232l-68.832 22.944c-31 10.336-53.6 36.784-58.976 69.016L30.556 496h434.888l-17.632-105.808zM209.068 480h-88.224l7.12-71.2-15.92-1.592-7.28 72.8H49.452l14.528-87.176c4.392-26.376 22.888-48.008 48.256-56.472l66.104-22.04 17.728 70.904 18.04-21.648 9.544 14.32L209.068 480zm61.712 0h-45.552l15.128-105.896-15.568-23.352L243.748 328h8.504l18.96 22.752-15.568 23.352L270.78 480zm120.464 0-7.28-72.8-15.92 1.592 7.12 71.2H286.94l-14.584-102.104 9.544-14.32 18.04 21.648 17.728-70.904 66.104 22.04c25.368 8.456 43.856 30.096 48.256 56.472L446.556 480h-55.312z" fill="#ffffff" opacity="1" data-original="#000000" class=""></path><path d="M147.54 215.552c4.08 14.04 11.616 26.912 22.24 37.536l31.2 31.2C208.532 291.84 218.572 296 229.26 296h37.496c10.68 0 20.728-4.16 28.28-11.712l31.2-31.2c10.624-10.624 18.16-23.504 22.24-37.536 19.928-2.256 35.528-19.024 35.528-39.552 0-13.128-6.448-24.704-16.248-32h.248V96c0-20.024-14.8-36.664-34.032-39.552C321.932 22.944 289.716 0 253.764 0h-5.76c-66.168 0-120 53.832-120 120v24h.248c-9.8 7.296-16.248 18.872-16.248 32 0 20.528 15.6 37.296 35.536 39.552zm188.464-24.696c0 19.24-7.488 37.32-21.088 50.92l-31.2 31.2c-4.464 4.464-10.648 7.024-16.968 7.024h-37.496c-6.32 0-12.496-2.56-16.968-7.024l-31.2-31.2c-13.6-13.6-21.088-31.68-21.088-50.912V152h31.432c35.208 0 68.496-12.504 94.8-35.408l2.448 4.08c10.208 17.016 27.872 28.328 47.328 30.792v39.392zm32-14.856c0 10.552-6.896 19.44-16.376 22.64.224-2.568.376-5.16.376-7.776v-37.392c9.288 3.312 16 12.112 16 22.528zm-224-56c0-57.344 46.656-104 104-104h5.76c30.736 0 58.104 20.64 66.552 50.2l1.656 5.8h6.032c13.232 0 24 10.768 24 24v40.808a39.963 39.963 0 0 0-8-.808c-16.944 0-32.888-9.024-41.608-23.56l-12.808-21.344-7.248 7.248C258.06 122.624 225.78 136 191.436 136h-39.432c-2.736 0-5.416.28-8 .808V120zm0 33.472v37.392c0 2.616.152 5.208.376 7.784-9.48-3.208-16.376-12.096-16.376-22.648 0-10.416 6.712-19.216 16-22.528z" fill="#ffffff" opacity="1" data-original="#000000" class=""></path></g></svg>