<svg width="1440" height="811" viewBox="0 0 1440 811" fill="none" xmlns="http://www.w3.org/2000/svg">
<g clip-path="url(#clip0_19_4106)">
<g clip-path="url(#clip1_19_4106)">
<g clip-path="url(#clip2_19_4106)">
<path d="M125.926 278.993L222.751 278.769C263.851 278.694 274.576 286.118 274.651 314.918C274.726 337.343 264.151 345.969 233.626 348.144V350.168H236.926C269.101 350.093 278.026 357.819 278.101 384.969C278.176 414.894 266.701 423.743 227.551 423.818L126.301 424.043L125.926 278.993ZM217.351 338.394V320.694L179.101 320.769V338.469L217.351 338.394ZM219.226 387.143L219.151 365.394L179.101 365.469L179.176 387.219L219.226 387.143Z" fill="white"/>
<path d="M301.65 278.618L435.525 278.318L435.6 323.693L354.75 323.843V333.593L432.525 333.443L432.6 366.743L354.825 366.893V378.218L435.75 378.068L435.825 423.443L301.95 423.743L301.65 278.618Z" fill="white"/>
<path d="M500.325 338.018L453.525 338.093L453.375 278.243L600.375 277.943L600.525 337.793L553.725 337.868L553.875 423.143L500.4 423.218L500.325 338.018Z" fill="white"/>
<path d="M657.751 337.719L610.951 337.793L610.801 277.943L757.801 277.643L757.951 337.493L711.151 337.568L711.301 422.844L657.826 422.918L657.751 337.719Z" fill="white"/>
<path d="M777.227 277.644L911.102 277.344L911.177 322.719L830.327 322.868V332.618L908.102 332.469L908.177 365.769L830.401 365.918V377.243L911.252 377.094L911.327 422.469L777.452 422.768L777.227 277.644Z" fill="white"/>
<path d="M937.951 277.268L1038.23 277.043C1077.68 276.968 1090.5 289.644 1090.65 329.094C1090.73 365.618 1072.13 375.593 1003.58 375.743H998.626V380.243L1088.03 380.094L1088.1 422.018L1005.75 422.168L990.151 375.743L990.226 422.244L938.251 422.318L937.951 277.268ZM1030.35 349.418L1030.28 329.693L991.726 329.768L991.801 349.493L1030.35 349.418Z" fill="white"/>
<path d="M121.276 561.443L213.376 563.318V555.518L173.101 555.593C135.151 555.668 117.601 545.243 117.526 522.518C117.451 492.368 134.026 482.543 184.951 482.393L254.326 482.243L254.401 529.193L162.001 531.068V538.043C180.976 537.968 196.501 538.418 209.176 539.168C249.451 541.718 258.751 548.468 258.826 575.543C258.901 601.193 243.826 613.493 212.026 613.568L121.426 613.718L121.276 561.443Z" fill="white"/>
<path d="M311.102 536.243L268.802 536.318L268.727 482.168L401.627 481.868L401.702 536.018L359.402 536.093L359.552 613.193L311.177 613.268L311.102 536.243Z" fill="white"/>
<path d="M415.801 481.943L506.401 481.793C542.101 481.718 553.726 493.193 553.801 528.818C553.876 561.818 537.076 570.893 475.126 570.968H470.701V575.093L551.476 574.943L551.551 612.893L477.076 613.043L462.976 571.043L463.051 613.043L416.026 613.118L415.801 481.943ZM499.276 547.193V529.343L464.401 529.418V547.268L499.276 547.193Z" fill="white"/>
<path d="M561.225 547.268C561.15 501.143 585.075 478.718 634.725 478.643C684.15 478.568 708.15 500.843 708.3 546.968C708.375 593.918 684.6 616.718 635.025 616.793C585.375 616.868 561.3 594.143 561.225 547.268ZM654.975 558.744L654.9 535.568L614.25 535.643L614.325 558.818L654.975 558.744Z" fill="white"/>
<path d="M722.25 481.268L778.275 481.119L809.175 526.119H812.775L812.7 481.043L859.575 480.969L859.875 612.143L804.15 612.293L773.25 569.543H769.65L769.725 612.369L722.625 612.443L722.25 481.268Z" fill="white"/>
<path d="M873.901 547.643C873.826 497.393 897.451 478.119 959.251 477.969C973.651 477.969 990.376 478.719 1018.65 480.744L1018.73 530.994L930.526 531.143L930.601 571.344L976.126 571.869L984.976 564.293L945.526 564.369L945.451 541.793L1018.73 541.643L1018.88 611.994L994.351 612.068L994.276 564.293H993.976L981.826 612.068C968.626 613.493 956.251 614.393 945.076 614.393C892.951 614.393 874.051 596.843 873.901 547.643Z" fill="white"/>
<path d="M1034.18 480.668L1155.23 480.443L1155.3 521.468L1082.18 521.618V530.468L1152.45 530.318L1152.53 560.468L1082.25 560.618V570.893L1155.38 570.743L1155.45 611.768L1034.4 611.993L1034.18 480.668Z" fill="white"/>
<path d="M1176.15 480.369L1266.75 480.219C1302.45 480.144 1314.08 491.619 1314.15 527.244C1314.23 560.244 1297.43 569.318 1235.48 569.393H1231.05V573.518L1311.83 573.369L1311.9 611.318L1237.43 611.469L1223.33 569.469L1223.4 611.469L1176.38 611.543L1176.15 480.369ZM1259.63 545.619V527.768L1224.75 527.844V545.693L1259.63 545.619Z" fill="white"/>
<path d="M133.201 278.993L230.026 278.769C271.126 278.694 281.851 286.118 281.926 314.918C282.001 337.343 271.426 345.969 240.901 348.144V350.168H244.201C276.376 350.093 285.301 357.819 285.376 384.969C285.451 414.894 273.976 423.743 234.826 423.818L133.576 424.043L133.201 278.993ZM224.626 338.394V320.694L186.376 320.769V338.469L224.626 338.394ZM226.501 387.143L226.426 365.394L186.376 365.469L186.451 387.219L226.501 387.143Z" fill="#EA6011"/>
<path d="M309 278.618L442.875 278.318L442.95 323.693L362.1 323.843V333.593L439.875 333.443L439.95 366.743L362.175 366.893V378.218L443.025 378.068L443.1 423.443L309.225 423.743L309 278.618Z" fill="#EA6011"/>
<path d="M507.675 338.018L460.875 338.093L460.725 278.243L607.725 277.943L607.875 337.793L561.075 337.868L561.225 423.143L507.75 423.218L507.675 338.018Z" fill="#EA6011"/>
<path d="M665.1 337.719L618.3 337.793L618.15 277.943L765.15 277.643L765.3 337.493L718.5 337.568L718.65 422.844L665.175 422.918L665.1 337.719Z" fill="#EA6011"/>
<path d="M784.576 277.644L918.451 277.344L918.526 322.719L837.676 322.868V332.618L915.451 332.469L915.526 365.769L837.751 365.918V377.243L918.601 377.094L918.676 422.469L784.801 422.768L784.576 277.644Z" fill="#EA6011"/>
<path d="M945.301 277.268L1045.58 277.043C1085.03 276.968 1097.85 289.644 1098 329.094C1098.08 365.618 1079.48 375.593 1010.93 375.743H1005.98V380.243L1095.38 380.094L1095.45 422.018L1013.1 422.168L997.501 375.818L997.576 422.318L945.601 422.393L945.301 277.268ZM1037.63 349.418L1037.55 329.693L999.001 329.768L999.076 349.493L1037.63 349.418Z" fill="#EA6011"/>
<path d="M128.625 561.443L220.725 563.318V555.518L180.45 555.593C142.5 555.668 124.95 545.243 124.875 522.518C124.8 492.368 141.375 482.543 192.3 482.393L261.675 482.243L261.75 529.193L169.35 531.068V538.043C188.325 537.968 203.85 538.418 216.525 539.168C256.8 541.718 266.1 548.468 266.175 575.543C266.25 601.193 251.175 613.493 219.375 613.568L128.775 613.718L128.625 561.443Z" fill="#EA6011"/>
<path d="M318.451 536.243L276.151 536.318L276.076 482.168L408.976 481.868L409.051 536.018L366.751 536.093L366.901 613.193L318.526 613.268L318.451 536.243Z" fill="#EA6011"/>
<path d="M423.076 481.943L513.676 481.793C549.376 481.718 561.001 493.193 561.076 528.818C561.151 561.818 544.351 570.893 482.401 570.968H477.976V575.093L558.751 574.943L558.826 612.893L484.351 613.043L470.251 571.043L470.326 613.043L423.301 613.118L423.076 481.943ZM506.626 547.193V529.343L471.751 529.418V547.268L506.626 547.193Z" fill="#EA6011"/>
<path d="M568.5 547.268C568.425 501.143 592.35 478.718 642 478.643C691.425 478.568 715.425 500.843 715.575 546.968C715.65 593.918 691.875 616.718 642.3 616.793C592.65 616.868 568.65 594.218 568.5 547.268ZM662.325 558.744L662.25 535.568L621.6 535.643L621.675 558.818L662.325 558.744Z" fill="#EA6011"/>
<path d="M729.6 481.268L785.625 481.119L816.525 526.119H820.125L820.05 481.043L866.925 480.969L867.225 612.143L811.5 612.293L780.6 569.543H777L777.075 612.369L729.975 612.443L729.6 481.268Z" fill="#EA6011"/>
<path d="M881.25 547.643C881.175 497.393 904.8 478.119 966.6 477.969C981 477.969 997.725 478.719 1026 480.744L1026.08 530.994L937.875 531.143L937.95 571.344L983.475 571.869L992.325 564.293L952.875 564.369L952.8 541.793L1026.08 541.643L1026.23 611.994L1001.7 612.068L1001.63 564.293H1001.33L989.175 612.068C975.975 613.493 963.6 614.393 952.425 614.393C900.225 614.393 881.325 596.843 881.25 547.643Z" fill="#EA6011"/>
<path d="M1041.45 480.668L1162.5 480.443L1162.58 521.468L1089.45 521.618V530.468L1159.73 530.318L1159.8 560.468L1089.53 560.618V570.893L1162.65 570.743L1162.73 611.768L1041.68 611.993L1041.45 480.668Z" fill="#EA6011"/>
<path d="M1183.43 480.369L1274.03 480.219C1309.73 480.144 1321.35 491.619 1321.43 527.244C1321.5 560.244 1304.7 569.318 1242.75 569.393H1238.33V573.518L1319.1 573.369L1319.18 611.318L1244.7 611.469L1230.6 569.469L1230.68 611.469L1183.65 611.543L1183.43 480.369ZM1266.9 545.619V527.768L1232.03 527.844V545.693L1266.9 545.619Z" fill="#EA6011"/>
<path d="M1162.5 479.393L348.75 482.393L344.85 478.568L1056.45 477.143L1162.5 479.393Z" fill="#005BAC"/>
<path d="M386.7 453.893C386.7 453.893 386.7 454.718 386.625 455.168C386.175 462.818 385.725 465.818 384.75 466.943C384.075 467.693 383.4 467.918 382.35 468.068C381.45 468.143 379.875 468.218 378.3 468.068C378.3 467.243 377.85 465.968 377.4 465.143C378.9 465.293 380.325 465.293 380.925 465.293C381.45 465.293 381.825 465.293 382.125 464.918C382.725 464.318 383.1 462.069 383.475 456.743H375.225C375.675 454.043 376.275 449.693 376.5 446.393H383.4V441.443H375.675V438.518H386.325V449.318H379.05C378.9 450.893 378.675 452.468 378.525 453.893H386.7ZM404.175 468.518C403.95 467.843 403.65 467.168 403.275 466.343C397.5 466.793 391.5 467.243 387.3 467.543L386.85 464.393C389.025 464.318 391.875 464.168 394.875 463.943V459.368H388.125V450.068H394.875V446.993H397.875V450.068H404.85V459.368H397.875V463.793L401.7 463.568C401.175 462.668 400.575 461.694 400.05 460.868L402.675 459.743C404.4 462.069 406.125 465.219 406.875 467.243L404.175 468.518ZM403.875 448.418C403.5 447.743 403.05 446.918 402.525 446.093C390.975 447.068 389.475 447.218 388.5 447.593C388.35 446.993 387.75 445.643 387.375 444.893C387.975 444.743 388.575 444.218 389.175 443.468C389.85 442.643 392.025 439.793 393.3 436.943L396.6 437.768C395.25 440.168 393.525 442.568 391.8 444.518L400.65 443.843C399.9 442.868 399.075 441.968 398.325 441.068L400.575 439.718C402.675 441.893 405.15 444.893 406.2 446.918L403.875 448.418ZM394.95 456.818V452.693H390.975V456.818H394.95ZM397.95 452.693V456.818H402V452.693H397.95Z" fill="#005BAC"/>
<path d="M441.6 449.543C443.925 456.743 448.275 462.518 454.8 465.218C453.975 465.893 452.925 467.243 452.4 468.218C445.95 465.218 441.825 459.668 439.125 452.318C437.4 458.543 433.65 464.543 425.85 468.218C425.325 467.393 424.275 466.193 423.375 465.518C431.55 461.918 434.925 455.768 436.275 449.468H424.05V446.168H436.875C437.325 442.718 437.25 439.418 437.325 436.643H440.775C440.775 439.418 440.7 442.718 440.325 446.168H454.2V449.468H441.6V449.543Z" fill="#005BAC"/>
<path d="M489.225 464.618C490.275 464.694 491.475 464.768 492.75 464.768C494.25 464.768 501.15 464.768 503.175 464.768C502.725 465.518 502.275 466.868 502.05 467.768H492.525C485.925 467.768 481.575 466.793 478.725 462.443C477.45 464.918 475.725 466.943 473.625 468.443C473.175 467.843 471.9 466.718 471.225 466.193C474.75 463.943 476.85 460.193 477.75 455.393L480.975 455.843C480.75 456.968 480.45 458.093 480.15 459.068C481.425 461.843 483.3 463.343 486 464.093V454.418H472.2V451.568H502.35V454.418H489.15V457.718H500.1V460.493H489.15V464.618H489.225ZM498.825 449.543H475.65V437.993H498.825V449.543ZM495.6 440.393H478.725V442.718H495.6V440.393ZM495.6 444.893H478.725V447.143H495.6V444.893Z" fill="#005BAC"/>
<path d="M551.325 450.443V453.968H519.975V450.443H551.325Z" fill="#005BAC"/>
<path d="M579.375 458.093C578.85 457.118 577.725 455.543 576.675 454.118V468.293H573.6V454.343C572.325 457.493 570.75 460.418 569.175 462.368C568.875 461.469 568.125 460.194 567.6 459.368C569.625 457.043 571.875 452.918 573.15 449.243H568.275V446.243H573.6V441.593C572.025 441.968 570.45 442.193 568.95 442.418C568.8 441.668 568.425 440.618 568.05 439.943C571.875 439.343 576.225 438.293 578.775 437.168L580.95 439.643C579.675 440.093 578.25 440.543 576.675 440.993V446.318H580.725V449.318H576.675V450.893C577.65 451.718 580.575 454.718 581.25 455.543L579.375 458.093ZM599.7 465.143V467.693H579.15V465.143H588.225V462.893H581.025V460.418H588.225V458.318H581.4V447.143H588.225V445.193H580.125V442.643H588.225V440.693C585.825 440.843 583.5 440.918 581.325 440.993C581.25 440.318 580.875 439.268 580.575 438.593C586.275 438.368 593.1 437.843 597.075 437.018L598.95 439.343C596.85 439.793 594.15 440.168 591.3 440.393V442.568H598.95V445.118H591.3V447.068H598.35V458.318H591.3V460.418H598.5V462.893H591.3V465.143H599.7ZM584.25 451.718H588.3V449.393H584.25V451.718ZM588.225 456.068V453.743H584.25V456.068H588.225ZM591.375 449.468V451.793H595.5V449.468H591.375ZM595.5 453.743H591.375V456.068H595.5V453.743Z" fill="#005BAC"/>
<path d="M626.024 448.193C623.099 449.393 620.099 450.743 617.624 451.643L616.424 449.018C618.749 448.268 622.124 447.068 625.499 445.868L626.024 448.193ZM633.674 451.568C633.224 452.468 632.699 453.368 632.249 454.193H643.349V468.443H639.974V467.168H624.224V468.443H620.999V454.193H629.024C629.399 453.368 629.774 452.393 629.999 451.568C629.849 451.793 629.549 451.943 629.249 452.093C628.274 452.543 626.849 452.468 624.749 452.468C624.599 451.718 624.299 450.818 623.924 450.143C625.274 450.143 626.624 450.143 626.999 450.143C627.449 450.143 627.524 449.993 627.524 449.693V440.918H617.099V438.368H630.449V449.618C630.449 450.219 630.374 450.668 630.299 450.968L633.674 451.568ZM622.874 446.018C622.049 445.043 620.099 443.693 618.524 442.793L620.099 440.918C621.674 441.743 623.624 443.018 624.524 443.993L622.874 446.018ZM639.974 456.593H624.224V459.368H639.974V456.593ZM639.974 464.618V461.768H624.224V464.618H639.974ZM631.799 448.418C634.274 447.668 637.799 446.468 641.324 445.193L641.849 447.518C638.774 448.718 635.474 449.918 632.924 450.818L631.799 448.418ZM645.974 449.618C645.974 451.043 645.674 451.718 644.624 452.168C643.649 452.618 642.074 452.618 639.824 452.618C639.674 451.868 639.374 450.818 638.999 450.068C640.424 450.143 641.999 450.143 642.374 450.143C642.824 450.143 642.899 449.993 642.899 449.618V440.918H632.549V438.368H645.899V449.618H645.974ZM637.949 446.018C637.049 445.043 635.024 443.693 633.449 442.793L635.024 440.918C636.599 441.668 638.624 442.943 639.599 443.918L637.949 446.018Z" fill="#005BAC"/>
<path d="M667.574 443.619C667.574 446.694 667.124 450.669 665.999 452.994L664.049 452.168C665.099 450.068 665.549 446.243 665.624 443.318L667.574 443.619ZM668.399 436.719H671.324V468.293H668.399V436.719ZM673.274 442.418C674.099 444.668 674.774 447.519 674.924 449.244L672.899 449.918C672.824 448.118 672.224 445.193 671.399 442.943L673.274 442.418ZM689.324 462.893C691.799 464.093 694.499 465.444 696.149 466.494L693.599 468.369C692.024 467.244 689.249 465.593 686.774 464.393L688.499 462.893H680.774L683.474 463.793C681.449 465.668 678.224 467.393 675.449 468.443C674.999 467.843 673.949 466.644 673.274 466.119C675.974 465.369 678.824 464.168 680.549 462.818H676.499V449.094H693.524V462.818H689.324V462.893ZM677.024 444.219H674.249V441.443H677.249L677.624 437.918H693.374L693.149 441.443H696.074V444.219H692.999L692.774 447.818H676.649L677.024 444.219ZM679.499 453.068H690.374V451.268H679.499V453.068ZM679.499 456.969H690.374V455.168H679.499V456.969ZM679.499 460.793H690.374V458.994H679.499V460.793ZM679.649 445.643H683.324C683.399 445.118 683.474 444.444 683.474 443.844H679.799L679.649 445.643ZM680.174 440.018L680.024 441.744H683.624C683.624 441.144 683.699 440.543 683.699 440.018H680.174ZM689.999 445.643L690.074 443.844H686.099C686.024 444.519 685.949 445.118 685.949 445.643H689.999ZM690.374 440.018H686.474L686.399 441.744H690.299L690.374 440.018Z" fill="#005BAC"/>
<path d="M716.1 457.343C718.725 456.368 720.3 454.793 720.45 452.693C720.3 452.693 720.15 452.693 720 452.693C718.425 452.693 717.075 451.718 717.075 449.918C717.075 448.193 718.425 447.143 720 447.143C722.175 447.143 723.3 448.868 723.3 451.418C723.3 455.243 720.9 458.168 716.925 459.443L716.1 457.343Z" fill="#005BAC"/>
<path d="M775.049 454.193V457.343H744.074V454.193H751.724V446.768H745.349V443.693H751.724V437.018H755.024V443.693H763.949V437.018H767.324V443.693H773.924V446.768H767.324V454.193H775.049ZM756.674 460.343C754.199 463.268 750.374 466.418 746.999 468.368C746.324 467.694 745.199 466.643 744.449 466.118C747.749 464.393 751.499 461.469 753.374 458.993L756.674 460.343ZM755.024 454.193H763.949V446.768H755.024V454.193ZM765.074 458.918C768.149 461.168 772.349 464.393 774.599 466.493L771.524 468.368C769.574 466.344 765.449 462.968 762.299 460.643L765.074 458.918Z" fill="#005BAC"/>
<path d="M804.6 446.693C804.525 450.443 804 454.943 802.05 459.218C803.775 460.718 805.275 462.218 806.25 463.418L804.15 466.118C803.25 464.993 801.975 463.568 800.475 462.218C798.975 464.468 796.95 466.568 794.325 468.518C793.875 467.843 792.75 466.793 792.075 466.268C794.775 464.393 796.725 462.293 798.15 460.043C796.35 458.393 794.4 456.818 792.75 455.393C793.425 453.293 794.025 450.368 794.625 447.368L792.225 447.518L791.85 444.443L795.15 444.293C795.525 441.743 795.9 439.118 796.05 436.793L799.2 436.943C798.975 439.193 798.6 441.593 798.225 444.143L801.675 443.993V441.593H804.675V443.768L806.625 443.693V446.543L804.6 446.693ZM797.625 447.143C797.175 449.693 796.575 452.243 796.05 454.343C797.175 455.168 798.3 456.143 799.425 457.118C801 453.518 801.45 449.918 801.525 446.843L797.625 447.143ZM823.575 454.118H816.3V464.768C816.3 466.493 815.925 467.393 814.65 467.843C813.45 468.293 811.65 468.368 809.025 468.368C808.875 467.468 808.35 466.193 807.9 465.293C809.775 465.368 811.725 465.368 812.25 465.293C812.775 465.293 813 465.143 813 464.618V454.043H805.35V450.968H813V447.293C814.65 445.868 816.3 443.843 817.575 441.893H806.85V438.968H819.825L820.575 438.818L822.75 440.393C821.1 442.943 818.775 445.868 816.3 447.968V450.968H823.575V454.118Z" fill="#005BAC"/>
<path d="M857.924 464.618C858.974 464.694 860.174 464.768 861.449 464.768C862.949 464.768 869.849 464.768 871.874 464.768C871.424 465.518 870.974 466.868 870.749 467.768H861.224C854.624 467.768 850.274 466.793 847.424 462.443C846.149 464.918 844.424 466.943 842.324 468.443C841.874 467.843 840.599 466.718 839.924 466.193C843.449 463.943 845.549 460.193 846.449 455.393L849.674 455.843C849.449 456.968 849.149 458.093 848.849 459.068C850.124 461.843 851.999 463.343 854.699 464.093V454.418H840.899V451.568H871.049V454.418H857.849V457.718H868.799V460.493H857.849V464.618H857.924ZM867.524 449.543H844.349V437.993H867.524V449.543ZM864.299 440.393H847.424V442.718H864.299V440.393ZM864.299 444.893H847.424V447.143H864.299V444.893Z" fill="#005BAC"/>
<path d="M919.95 450.443V453.968H888.6V450.443H919.95Z" fill="#005BAC"/>
<path d="M948.074 458.093C947.549 457.118 946.424 455.543 945.374 454.118V468.293H942.299V454.343C941.024 457.493 939.449 460.418 937.874 462.368C937.574 461.469 936.824 460.194 936.299 459.368C938.324 457.043 940.574 452.918 941.849 449.243H936.974V446.243H942.299V441.593C940.724 441.968 939.149 442.193 937.649 442.418C937.499 441.668 937.124 440.618 936.749 439.943C940.574 439.343 944.924 438.293 947.474 437.168L949.649 439.643C948.374 440.093 946.949 440.543 945.374 440.993V446.318H949.424V449.318H945.374V450.893C946.349 451.718 949.274 454.718 949.949 455.543L948.074 458.093ZM968.399 465.143V467.693H947.849V465.143H956.924V462.893H949.724V460.418H956.924V458.318H950.099V447.143H956.924V445.193H948.824V442.643H956.924V440.693C954.524 440.843 952.199 440.918 950.024 440.993C949.949 440.318 949.574 439.268 949.274 438.593C954.974 438.368 961.799 437.843 965.774 437.018L967.649 439.343C965.549 439.793 962.849 440.168 959.999 440.393V442.568H967.649V445.118H959.999V447.068H967.049V458.318H959.999V460.418H967.199V462.893H959.999V465.143H968.399ZM952.874 451.718H956.924V449.393H952.874V451.718ZM956.924 456.068V453.743H952.874V456.068H956.924ZM959.999 449.468V451.793H964.124V449.468H959.999ZM964.199 453.743H960.074V456.068H964.199V453.743Z" fill="#005BAC"/>
<path d="M985.35 465.968C986.55 464.393 987.525 461.843 988.05 459.818L990.825 460.868C990.15 462.969 989.325 465.668 988.2 467.393L985.35 465.968ZM999.3 445.118C999 444.668 998.7 444.068 998.25 443.393C988.35 444.293 987.075 444.443 986.325 444.743C986.175 444.218 985.725 442.868 985.425 442.118C985.95 442.043 986.55 441.668 987.225 441.143C987.9 440.618 990.15 438.593 991.575 436.493L994.5 437.393C993.225 438.968 991.65 440.393 990.225 441.593L996.75 441.143C996.225 440.468 995.625 439.793 995.1 439.193L997.275 437.993C998.85 439.718 1000.72 442.118 1001.62 443.618L999.3 445.118ZM999.375 456.368C999.375 457.643 999.15 458.168 998.25 458.618C997.425 458.993 996.075 458.993 994.125 458.993C993.975 458.319 993.6 457.418 993.3 456.818C994.575 456.818 995.775 456.818 996.075 456.818C996.45 456.818 996.6 456.743 996.6 456.368V454.043C994.5 454.793 992.4 455.618 990.525 456.293L989.7 454.418C989.4 456.218 988.875 458.018 987.6 459.443C987.15 458.918 985.95 458.018 985.35 457.718C987.075 455.693 987.225 453.068 987.225 450.893V445.568H999.3V456.368H999.375ZM990.075 450.893C990.075 451.793 990.075 452.843 989.925 453.893C991.725 453.443 994.125 452.768 996.675 452.093V447.818H990.075V450.893ZM991.35 448.568C993 449.168 995.175 449.993 996.45 450.668L995.175 452.393C994.05 451.793 991.8 450.743 990.075 450.068L991.35 448.568ZM1004.62 465.218C1006.2 465.218 1006.5 464.768 1006.65 461.693C1007.32 462.143 1008.6 462.594 1009.35 462.743C1008.97 466.793 1008.07 467.768 1004.85 467.768H997.95C993.825 467.768 992.775 467.018 992.775 464.243V460.343H995.85V464.243C995.85 465.069 996.225 465.218 998.175 465.218H1004.62ZM1001.92 463.793C1001.17 462.743 999.75 460.868 998.55 459.593L1000.72 458.168C1001.92 459.443 1003.42 461.168 1004.17 462.218L1001.92 463.793ZM1006.57 447.068C1003.42 447.068 1002.67 446.018 1002.67 443.168V437.018H1005.67V439.343H1013.92V441.818H1005.67V443.243C1005.67 444.218 1005.82 444.593 1006.8 444.593H1012.05C1012.87 444.593 1014.22 444.518 1014.9 444.368C1014.97 445.193 1015.05 446.243 1015.2 446.918C1014.67 447.068 1013.32 447.143 1012.2 447.143H1006.57V447.068ZM1006.95 458.693C1003.5 458.693 1002.67 457.943 1002.67 455.168V448.118H1005.67V450.593H1013.92V453.068H1005.67V455.168C1005.67 456.068 1005.9 456.143 1007.32 456.143H1011.9C1012.87 456.143 1013.17 455.843 1013.25 454.043C1013.85 454.493 1015.05 454.868 1015.87 455.093C1015.5 458.018 1014.67 458.693 1012.2 458.693H1006.95ZM1012.87 459.743C1013.85 461.694 1015.05 464.318 1015.57 465.893L1012.65 466.868C1012.2 465.219 1011.07 462.594 1010.1 460.493L1012.87 459.743Z" fill="#005BAC"/>
<path d="M1039.13 449.093C1039.13 454.643 1038.68 462.818 1035.83 468.293C1035.15 467.843 1033.73 467.094 1032.9 466.868C1035.68 461.694 1035.9 454.268 1035.9 449.093V439.943H1048.88C1048.5 439.043 1048.13 438.068 1047.75 437.318L1050.98 436.568C1051.58 437.618 1052.18 438.893 1052.55 439.943H1064.18V442.943H1039.05V449.093H1039.13ZM1061.85 457.268C1060.35 460.118 1058.03 462.218 1055.18 463.793C1058.03 464.693 1061.25 465.218 1064.78 465.518C1064.1 466.193 1063.35 467.468 1062.9 468.293C1058.7 467.843 1054.8 466.943 1051.5 465.518C1048.05 466.793 1044.08 467.618 1039.95 468.068C1039.73 467.243 1039.13 466.043 1038.68 465.368C1041.98 465.069 1045.2 464.618 1048.13 463.718C1046.18 462.518 1044.53 461.094 1043.18 459.368L1044.53 458.843H1040.33V456.293H1059.3L1059.83 456.218L1061.85 457.268ZM1045.05 454.493V449.018H1039.95V446.468H1045.05V443.843H1048.05V446.468H1055.48V443.843H1058.63V446.468H1063.88V449.018H1058.63V454.493H1045.05ZM1046.4 458.918C1047.68 460.343 1049.48 461.543 1051.65 462.593C1053.83 461.618 1055.7 460.418 1057.13 458.918H1046.4ZM1048.05 449.018V452.018H1055.48V449.018H1048.05Z" fill="#005BAC"/>
<path d="M1094.02 452.543C1094.02 455.543 1091.62 457.943 1088.62 457.943C1085.62 457.943 1083.22 455.543 1083.22 452.543C1083.22 449.543 1085.62 447.143 1088.62 447.143C1091.62 447.218 1094.02 449.618 1094.02 452.543ZM1091.92 452.543C1091.92 450.743 1090.42 449.243 1088.62 449.243C1086.82 449.243 1085.32 450.743 1085.32 452.543C1085.32 454.343 1086.82 455.843 1088.62 455.843C1090.5 455.843 1091.92 454.418 1091.92 452.543Z" fill="#005BAC"/>
<path d="M321.375 482.468L315.225 475.418C310.5 478.943 305.175 483.293 292.275 483.368C269.475 483.443 259.5 472.193 259.5 453.293C259.5 442.118 267.6 433.868 274.8 429.068C271.425 425.243 265.65 418.793 265.65 409.118C265.65 394.868 275.55 385.043 294 385.043C311.1 385.043 321.075 395.018 321.075 409.343C321.075 416.693 317.55 421.418 311.625 425.918C311.625 425.918 307.275 429.293 304.875 430.943L316.35 444.068C319.05 440.918 320.4 434.693 320.775 430.043L341.7 429.968C340.8 442.568 337.5 452.543 330.45 460.268L349.35 482.393L321.375 482.468ZM286.65 442.493C282.15 445.643 280.95 448.493 280.95 453.068C280.95 459.068 286.275 463.268 292.275 463.268C297.15 463.268 299.625 461.618 301.8 459.743L286.65 442.493ZM294 403.718C289.35 403.718 287.925 406.193 287.925 409.568C287.925 412.418 291.45 415.793 293.1 417.443C294.3 416.618 296.325 415.118 296.325 415.118C298.65 413.468 300.15 411.593 300.15 409.418C300.15 406.193 298.125 403.718 294 403.718Z" fill="#005BAC"/>
<path d="M344.85 479.694C337.575 479.844 330.3 479.919 323.1 480.069L323.025 479.919L317.175 473.319L317.775 473.393C310.8 479.243 303.375 481.494 294.3 481.119C280.725 481.119 268.35 475.643 265.05 461.393C263.1 452.468 263.625 444.444 269.55 437.094C272.175 433.719 275.4 430.869 278.925 428.544L278.775 429.518C277.05 427.643 275.4 425.619 274.05 423.444C266.55 411.894 269.925 395.093 283.35 389.768C287.775 387.968 292.65 387.369 297.45 387.369C292.725 387.519 287.925 388.268 283.575 390.143C273.45 394.493 269.175 405.594 272.025 415.944C273.375 420.819 276.45 424.944 279.825 428.619L280.35 429.143C276.675 431.543 273.375 434.394 270.75 437.844C265.125 444.969 264.825 452.394 266.625 460.944C269.7 474.519 281.55 479.618 294.45 479.768C303.3 480.218 310.425 478.269 317.4 472.569L317.7 472.344L317.925 472.643L323.625 479.393C329.175 479.243 338.025 479.694 344.85 479.694Z" fill="white"/>
<path d="M304.649 458.169C299.174 453.444 294.299 447.968 290.324 441.893C295.799 446.618 300.674 452.094 304.649 458.169Z" fill="white"/>
<path d="M296.4 418.193C298.35 416.018 301.725 414.219 302.25 411.219C302.475 409.869 302.175 408.294 301.275 407.244C300.375 406.119 298.875 405.519 297.225 405.219C298.875 404.919 300.825 405.219 302.1 406.494C304.125 408.369 304.35 411.893 302.55 414.068C301.05 416.018 298.65 417.068 296.4 418.193Z" fill="white"/>
<path d="M340.275 430.793C340.425 440.243 337.725 452.018 330 458.168C331.575 456.218 332.85 454.118 333.9 451.943C337.2 445.268 338.85 437.993 340.275 430.793Z" fill="white"/>
</g>
</g>
</g>
<g clip-path="url(#clip3_19_4106)">
<g clip-path="url(#clip4_19_4106)">
<g clip-path="url(#clip5_19_4106)">
<path d="M1166.42 98.0085C1166.42 173.016 1095.5 233.83 1008.03 233.916C1093.13 234.002 1162.5 291.528 1166.24 363.699H1166.6C1170.34 291.528 1239.72 234.002 1324.81 233.916C1237.33 233.83 1166.42 173.016 1166.42 98.0085Z" fill="#005BAC"/>
<path d="M1112.5 231.28C1112.43 231.625 1112.12 231.865 1111.54 231.942C1110.71 238.171 1109.49 243.989 1100.85 247.277C1100.21 245.967 1099.34 244.784 1098.28 243.788C1105.87 241.181 1106.56 236.485 1107.05 230.772L1112.5 231.28ZM1121.35 241.689C1121.35 243.012 1121.55 243.222 1122.67 243.222H1125.92C1127.1 243.222 1127.31 242.312 1127.48 237.232C1128.62 238.031 1129.9 238.621 1131.25 238.977C1130.86 245.235 1129.82 247.018 1126.3 247.018H1122.05C1118.22 247.018 1117.15 245.724 1117.15 241.689V230.513H1099.08V226.44H1130.45V230.513H1121.34L1121.35 241.689ZM1127.23 216.616V220.689H1102.31V216.645L1127.23 216.616Z" fill="white"/>
<path d="M1167.38 228.213H1154.92C1156.97 235.421 1161.01 240.884 1168.18 243.29C1166.99 244.475 1165.97 245.824 1165.15 247.296C1158.45 244.679 1154.5 239.877 1151.96 233.159C1150.04 238.909 1146.28 243.989 1138.69 247.325C1137.9 245.929 1136.86 244.691 1135.62 243.673C1144.13 240.223 1147.39 234.587 1148.61 228.213H1136.25V223.9H1149.17C1149.42 220.795 1149.38 217.632 1149.42 214.498L1154.95 214.843C1154.88 215.226 1154.56 215.475 1153.99 215.571C1153.99 218.255 1153.92 221.073 1153.68 223.9H1167.4L1167.38 228.213Z" fill="white"/>
<path d="M1196.06 234.108C1195.86 230.686 1195.75 227.561 1195.79 224.063H1195.67C1194.79 227.446 1194.01 230.101 1193.13 233.226L1189.62 245.197H1185.23L1182.08 233.609C1181.24 230.226 1180.5 227.523 1179.73 224.025H1179.59C1179.47 227.6 1179.4 230.734 1179.21 234.261L1178.73 245.609H1173.57L1175.65 215.696H1182.23L1185.39 227.399C1186.35 231.06 1186.97 233.485 1187.77 236.83H1187.9C1188.7 233.446 1189.36 231.079 1190.36 227.399L1193.63 215.696H1200.14L1201.91 245.609H1196.52L1196.06 234.108Z" fill="white"/>
<path d="M1214.94 237.414L1212.51 245.609H1206.63L1216.44 215.696H1223.56L1233.49 245.609H1227.38L1224.88 237.376L1214.94 237.414ZM1223.83 233.101L1221.52 225.942C1220.91 224.169 1220.29 222.204 1219.82 220.392H1219.75C1219.29 222.204 1218.71 224.226 1218.18 225.942L1215.9 233.149L1223.83 233.101Z" fill="white"/>
<path d="M1137.93 261.529L1138.18 263.513L1136.17 264.155V268.727C1136.17 270.768 1135.42 271.161 1132.34 271.161C1132.22 270.439 1132 269.736 1131.69 269.072C1132.45 269.072 1133.29 269.072 1133.56 269.072C1133.82 269.072 1133.92 268.957 1133.92 268.688V264.855L1132.28 265.343C1132.27 265.427 1132.23 265.506 1132.17 265.567C1132.11 265.629 1132.04 265.671 1131.96 265.688L1131.24 263.12C1131.97 262.966 1132.89 262.756 1133.92 262.506V258.941H1131.5V256.832H1133.92V253.276L1136.68 253.391C1136.68 253.602 1136.53 253.717 1136.16 253.775V256.899H1138.15V259.008H1136.17V262.008L1137.93 261.529ZM1147.57 253.861L1148.84 253.995C1148.84 254.187 1148.84 254.446 1148.77 254.657C1148.57 258.96 1148.33 260.714 1147.81 261.366C1147.29 262.018 1146.67 262.18 1145.18 262.18C1144.93 262.18 1144.64 262.18 1144.36 262.18C1144.3 261.445 1144.1 260.727 1143.76 260.072C1144.26 260.127 1144.77 260.153 1145.27 260.149C1145.38 260.166 1145.49 260.154 1145.6 260.114C1145.7 260.073 1145.79 260.006 1145.86 259.919C1146.11 259.612 1146.3 258.567 1146.46 255.989H1143.74C1143.26 258.375 1142.45 260.963 1139.23 262.602C1138.89 261.932 1138.41 261.336 1137.84 260.848C1138.83 260.44 1139.68 259.773 1140.32 258.918C1140.96 258.063 1141.35 257.05 1141.46 255.989H1138.53V253.938H1147.06L1147.57 253.861ZM1139.06 271.209V263.148H1148.3V271.113H1145.99V270.528H1141.25V271.228L1139.06 271.209ZM1145.99 265.228H1141.25V268.449H1146L1145.99 265.228Z" fill="white"/>
<path d="M1174.9 264.941H1171.6C1172.79 265.666 1174.09 266.2 1175.44 266.522C1174.88 267.066 1174.4 267.678 1173.99 268.343C1173.15 268.056 1172.34 267.68 1171.58 267.222C1171.21 270.921 1170.73 271.18 1168.28 271.18C1167.91 271.18 1167.51 271.18 1167.1 271.18C1167.05 270.572 1166.87 269.982 1166.56 269.455C1167.33 269.532 1168.07 269.551 1168.39 269.551C1169.15 269.551 1169.25 269.206 1169.42 267.874H1165.99C1165.21 269.455 1163.69 270.596 1160.18 271.295C1159.95 270.684 1159.6 270.124 1159.15 269.647C1161.49 269.263 1162.81 268.688 1163.57 267.874H1160.51V267.184C1159.8 267.567 1159.06 267.887 1158.29 268.142C1157.97 267.524 1157.53 266.976 1157 266.532C1158.24 266.178 1159.43 265.645 1160.53 264.95H1157.54V263.177H1162.52C1162.69 262.937 1162.85 262.687 1162.99 262.43H1160.06V257.11H1172.65V262.458H1165.74C1165.69 262.53 1165.63 262.587 1165.55 262.624C1165.47 262.661 1165.38 262.677 1165.3 262.669C1165.2 262.842 1165.11 263.033 1164.99 263.206H1174.94L1174.9 264.941ZM1161.89 256.861V256.152H1157.68V254.34H1161.89V253.276L1164.61 253.411C1164.61 253.602 1164.44 253.717 1164.12 253.775V254.417H1168.23V253.276L1170.97 253.411C1170.97 253.602 1170.82 253.717 1170.47 253.794V254.417H1174.8V256.152H1170.5V256.823H1168.26V256.152H1164.15V256.823L1161.89 256.861ZM1162.12 258.366V259.123H1170.42V258.366H1162.12ZM1162.12 260.35V261.126H1170.42V260.35H1162.12ZM1164.45 266.196C1164.55 265.831 1164.62 265.459 1164.67 265.085L1167.13 265.315C1167.13 265.487 1166.96 265.602 1166.67 265.64L1166.55 266.196H1170.1C1169.64 265.812 1169.2 265.392 1168.81 264.941H1163.56C1163.12 265.4 1162.63 265.82 1162.12 266.196H1164.45Z" fill="white"/>
<path d="M1193.12 256.554H1199.96V266.139H1197.56V265.18H1193.12V271.18H1190.73V265.18H1186.45V266.254H1184.15V256.554H1190.73V253.219L1193.66 253.392C1193.66 253.583 1193.5 253.698 1193.12 253.756V256.554ZM1186.41 262.938H1190.69V258.807H1186.41V262.938ZM1193.12 262.938H1197.56V258.807H1193.12V262.938Z" fill="white"/>
</g>
</g>
</g>
<defs>
<clipPath id="clip0_19_4106">
<rect width="1440" height="810" fill="white" transform="translate(0 0.818481)"/>
</clipPath>
<clipPath id="clip1_19_4106">
<rect width="1440" height="810" fill="white" transform="translate(0 0.818481)"/>
</clipPath>
<clipPath id="clip2_19_4106">
<rect width="1440" height="810" fill="white" transform="translate(0 0.818481)"/>
</clipPath>
<clipPath id="clip3_19_4106">
<rect width="316.79" height="265.7" fill="white" transform="translate(1008.02 98.0085)"/>
</clipPath>
<clipPath id="clip4_19_4106">
<rect width="316.79" height="265.7" fill="white" transform="translate(1008.02 98.0085)"/>
</clipPath>
<clipPath id="clip5_19_4106">
<rect width="316.785" height="265.7" fill="white" transform="translate(1008.03 98.0085)"/>
</clipPath>
</defs>
</svg>
