<svg width="60" height="60" viewBox="0 0 60 60" fill="none" xmlns="http://www.w3.org/2000/svg">
<rect x="0.75" y="0.75" width="58.5" height="58.5" rx="11.25" fill="#E6F4FE"/>
<rect x="0.75" y="0.75" width="58.5" height="58.5" rx="11.25" stroke="#005BAC" stroke-width="1.5"/>
<g clip-path="url(#clip0_19_4345)">
<path d="M26.8109 18.9971C26.8109 20.632 25.4856 21.9573 23.8508 21.9573C22.2159 21.9573 20.8906 20.632 20.8906 18.9971C20.8906 17.3623 22.2159 16.037 23.8508 16.037C25.4856 16.037 26.8109 17.3623 26.8109 18.9971Z" stroke="#005BAC" stroke-width="1.59297" stroke-miterlimit="10"/>
<path d="M23.8496 23.931V26.8911" stroke="#005BAC" stroke-width="1.59297" stroke-miterlimit="10"/>
<path d="M23.8496 34.8501V45.7698" stroke="#005BAC" stroke-width="1.59297" stroke-miterlimit="10"/>
<path d="M32.7266 18.9971C32.7266 20.632 34.0519 21.9573 35.6867 21.9573C37.3216 21.9573 38.6469 20.632 38.6469 18.9971C38.6469 17.3623 37.3216 16.037 35.6867 16.037C34.0519 16.037 32.7266 17.3623 32.7266 18.9971Z" stroke="#005BAC" stroke-width="1.59297" stroke-miterlimit="10"/>
<path d="M35.6895 23.931V26.8911" stroke="#005BAC" stroke-width="1.59297" stroke-miterlimit="10"/>
<path d="M35.6895 34.8508V45.7705" stroke="#005BAC" stroke-width="1.59297" stroke-miterlimit="10"/>
<path d="M29.7693 23.9311H41.6757V14.064H45.6226V25.9046C45.6226 26.9945 44.739 27.878 43.6491 27.878H39.6365V45.7705H31.7427V35.8375H27.7959V45.7705H19.9021V27.878H15.8895C14.7996 27.878 13.916 26.9945 13.916 25.9046V14.064H17.8629V23.9311H23.8161H29.7693ZM29.7693 23.9311V27.878C30.8592 27.878 31.7427 28.7615 31.7427 29.8514C31.7427 30.9414 30.8592 31.8249 29.7693 31.8249V35.8375" stroke="#005BAC" stroke-width="1.59297" stroke-miterlimit="10"/>
<path d="M26.809 18.9966C26.809 20.6315 25.4837 21.9568 23.8488 21.9568C22.214 21.9568 20.8887 20.6315 20.8887 18.9966C20.8887 17.3618 22.214 16.0365 23.8488 16.0365C25.4837 16.0365 26.809 17.3618 26.809 18.9966Z" stroke="#005BAC" stroke-width="1.59297" stroke-miterlimit="10"/>
<path d="M23.8477 23.9305V26.8906" stroke="#005BAC" stroke-width="1.59297" stroke-miterlimit="10"/>
<path d="M23.8477 34.8496V45.7693" stroke="#005BAC" stroke-width="1.59297" stroke-miterlimit="10"/>
<path d="M27.7939 45.77V35.8371H29.7673V31.8244C30.8572 31.8244 31.7408 30.9409 31.7408 29.851C31.7408 28.761 30.8572 27.8775 29.7673 27.8775V23.9306H23.8141H17.8609V14.0635H13.9141V25.9041C13.9141 26.994 14.7976 27.8775 15.8875 27.8775H19.9002V45.77H27.7939Z" stroke="#005BAC" stroke-width="1.59297" stroke-miterlimit="10"/>
</g>
<defs>
<clipPath id="clip0_19_4345">
<rect width="33.68" height="33.68" fill="white" transform="translate(13 13)"/>
</clipPath>
</defs>
</svg>
