<svg width="60" height="60" viewBox="0 0 60 60" fill="none" xmlns="http://www.w3.org/2000/svg">
<rect x="0.83505" y="0.835783" width="58.3293" height="58.3284" rx="11.1649" fill="#E6F4FE"/>
<rect x="0.83505" y="0.835783" width="58.3293" height="58.3284" rx="11.1649" stroke="#005BAC" stroke-width="1.6701"/>
<path d="M19.4476 16.373C19.4476 18.1095 18.0394 19.5176 16.3029 19.5176C14.5663 19.5176 13.1582 18.1095 13.1582 16.373C13.1582 14.6364 14.5663 13.1584 16.3029 13.1584C18.0394 13.1584 19.4476 14.6364 19.4476 16.373Z" stroke="#005BAC" stroke-width="1.6701" stroke-miterlimit="10"/>
<path d="M27.8334 30V25.8071H20.3155L17.9731 22.6841C17.4678 22.0105 16.6746 21.6143 15.8333 21.6143C14.356 21.6143 13.1582 22.812 13.1582 24.2893V38.3857H19.4476V46.8412H23.6405V34.1928H17.3511V30H27.8334Z" stroke="#005BAC" stroke-width="1.6701" stroke-miterlimit="10"/>
<path d="M40.5527 16.373C40.5527 18.1095 41.9609 19.5176 43.6974 19.5176C45.434 19.5176 46.8421 18.1095 46.8421 16.373C46.8421 14.6364 45.434 13.1584 43.6974 13.1584C41.9609 13.1584 40.5527 14.6364 40.5527 16.373Z" stroke="#005BAC" stroke-width="1.6701" stroke-miterlimit="10"/>
<path d="M32.1621 30V25.8071H39.68L42.0224 22.6841C42.5277 22.0105 43.3208 21.6143 44.1622 21.6143C45.6395 21.6143 46.8373 22.812 46.8373 24.2893V38.3857H40.5479V46.8412H36.355V34.1928H42.6444V30H32.1621Z" stroke="#005BAC" stroke-width="1.6701" stroke-miterlimit="10"/>
<path d="M25.7324 30H34.258" stroke="#005BAC" stroke-width="1.6701" stroke-miterlimit="10"/>
<path d="M29.9961 30V46.8413" stroke="#005BAC" stroke-width="1.6701" stroke-miterlimit="10"/>
<path d="M26.7832 46.8411H33.2123" stroke="#005BAC" stroke-width="1.6701" stroke-miterlimit="10"/>
</svg>
