<svg width="1205" height="340" viewBox="0 0 1205 340" fill="none" xmlns="http://www.w3.org/2000/svg">
<path d="M8.92578 1.9935L105.751 1.76851C146.851 1.69351 157.576 9.11849 157.651 37.9185C157.726 60.3435 147.151 68.9685 116.626 71.1435V73.1685H119.926C152.101 73.0935 161.026 80.8185 161.101 107.969C161.176 137.894 149.701 146.744 110.551 146.819L9.30078 147.043L8.92578 1.9935ZM100.351 61.3935V43.6935L62.1008 43.7685V61.4685L100.351 61.3935ZM102.226 110.143L102.151 88.3935L62.1008 88.4685L62.1758 110.219L102.226 110.143Z" fill="white"/>
<path d="M184.65 1.61848L318.525 1.31848L318.6 46.6935L237.75 46.8435V56.5935L315.525 56.4435L315.6 89.7435L237.825 89.8935V101.218L318.75 101.068L318.825 146.443L184.95 146.743L184.65 1.61848Z" fill="white"/>
<path d="M383.325 61.0185L336.525 61.0935L336.375 1.24348L483.375 0.943481L483.525 60.7935L436.725 60.8685L436.875 146.143L383.4 146.218L383.325 61.0185Z" fill="white"/>
<path d="M540.751 60.7185L493.951 60.7935L493.801 0.943489L640.801 0.643494L640.951 60.4935L594.151 60.5685L594.301 145.844L540.826 145.918L540.751 60.7185Z" fill="white"/>
<path d="M660.227 0.643501L794.102 0.343506L794.177 45.7185L713.327 45.8685V55.6185L791.102 55.4685L791.177 88.7685L713.401 88.9185V100.243L794.252 100.094L794.327 145.469L660.452 145.768L660.227 0.643501Z" fill="white"/>
<path d="M820.951 0.268496L921.226 0.0434824C960.676 -0.0315176 973.501 12.6435 973.651 52.0935C973.726 88.6185 955.126 98.5935 886.576 98.7435H881.626V103.243L971.026 103.094L971.101 145.018L888.751 145.168L873.151 98.7435L873.226 145.244L821.251 145.318L820.951 0.268496ZM913.351 72.4185L913.276 52.6935L874.726 52.7685L874.801 72.4935L913.351 72.4185Z" fill="white"/>
<path d="M4.27564 284.443L96.3756 286.318V278.518L56.1006 278.593C18.1506 278.668 0.600644 268.243 0.525644 245.518C0.450644 215.368 17.0256 205.543 67.9506 205.393L137.326 205.243L137.401 252.193L45.0006 254.068V261.043C63.9756 260.968 79.5006 261.418 92.1756 262.168C132.451 264.718 141.751 271.468 141.826 298.543C141.901 324.193 126.826 336.493 95.0257 336.568L4.42564 336.718L4.27564 284.443Z" fill="white"/>
<path d="M194.102 259.243L151.802 259.318L151.727 205.168L284.627 204.868L284.702 259.018L242.402 259.093L242.552 336.193L194.177 336.268L194.102 259.243Z" fill="white"/>
<path d="M298.801 204.943L389.401 204.793C425.101 204.718 436.726 216.193 436.801 251.818C436.876 284.818 420.076 293.893 358.126 293.968H353.701V298.093L434.476 297.943L434.551 335.893L360.076 336.043L345.976 294.043L346.051 336.043L299.026 336.118L298.801 204.943ZM382.276 270.193V252.343L347.401 252.418V270.268L382.276 270.193Z" fill="white"/>
<path d="M444.225 270.268C444.15 224.143 468.075 201.718 517.725 201.643C567.15 201.568 591.15 223.843 591.3 269.968C591.375 316.918 567.6 339.718 518.025 339.793C468.375 339.868 444.3 317.143 444.225 270.268ZM537.975 281.744L537.9 258.568L497.25 258.643L497.325 281.818L537.975 281.744Z" fill="white"/>
<path d="M605.25 204.268L661.275 204.119L692.175 249.119H695.775L695.7 204.043L742.575 203.969L742.875 335.143L687.15 335.293L656.25 292.543H652.65L652.725 335.369L605.625 335.443L605.25 204.268Z" fill="white"/>
<path d="M756.901 270.643C756.826 220.393 780.451 201.119 842.251 200.969C856.651 200.969 873.376 201.719 901.651 203.744L901.726 253.994L813.526 254.143L813.601 294.344L859.126 294.869L867.976 287.293L828.526 287.369L828.451 264.793L901.726 264.643L901.876 334.994L877.351 335.068L877.276 287.293H876.976L864.826 335.068C851.626 336.493 839.251 337.393 828.076 337.393C775.951 337.393 757.051 319.843 756.901 270.643Z" fill="white"/>
<path d="M917.176 203.668L1038.23 203.443L1038.3 244.468L965.176 244.618V253.468L1035.45 253.318L1035.53 283.468L965.251 283.618V293.893L1038.38 293.743L1038.45 334.768L917.401 334.993L917.176 203.668Z" fill="white"/>
<path d="M1059.15 203.369L1149.75 203.219C1185.45 203.144 1197.08 214.619 1197.15 250.244C1197.23 283.244 1180.43 292.318 1118.48 292.393H1114.05V296.518L1194.83 296.369L1194.9 334.318L1120.43 334.469L1106.33 292.469L1106.4 334.469L1059.38 334.543L1059.15 203.369ZM1142.63 268.619V250.768L1107.75 250.844V268.693L1142.63 268.619Z" fill="white"/>
<path d="M16.2012 1.9935L113.026 1.76851C154.126 1.69351 164.851 9.11849 164.926 37.9185C165.001 60.3435 154.426 68.9685 123.901 71.1435V73.1685H127.201C159.376 73.0935 168.301 80.8185 168.376 107.969C168.451 137.894 156.976 146.744 117.826 146.819L16.5762 147.043L16.2012 1.9935ZM107.626 61.3935V43.6935L69.3762 43.7685V61.4685L107.626 61.3935ZM109.501 110.143L109.426 88.3935L69.3762 88.4685L69.4512 110.219L109.501 110.143Z" fill="#EA6011"/>
<path d="M192 1.61848L325.875 1.31848L325.95 46.6935L245.1 46.8435V56.5935L322.875 56.4435L322.95 89.7435L245.175 89.8935V101.218L326.025 101.068L326.1 146.443L192.225 146.743L192 1.61848Z" fill="#EA6011"/>
<path d="M390.675 61.0185L343.875 61.0935L343.725 1.24348L490.725 0.943481L490.875 60.7935L444.075 60.8685L444.225 146.143L390.75 146.218L390.675 61.0185Z" fill="#EA6011"/>
<path d="M548.1 60.7185L501.3 60.7935L501.15 0.943489L648.15 0.643494L648.3 60.4935L601.5 60.5685L601.65 145.844L548.175 145.918L548.1 60.7185Z" fill="#EA6011"/>
<path d="M667.576 0.643501L801.451 0.343506L801.526 45.7185L720.676 45.8685V55.6185L798.451 55.4685L798.526 88.7685L720.751 88.9185V100.243L801.601 100.094L801.676 145.469L667.801 145.768L667.576 0.643501Z" fill="#EA6011"/>
<path d="M828.301 0.268496L928.576 0.0434824C968.026 -0.0315176 980.851 12.6435 981.001 52.0935C981.076 88.6185 962.476 98.5935 893.926 98.7435H888.976V103.243L978.376 103.094L978.451 145.018L896.101 145.168L880.501 98.8185L880.576 145.318L828.601 145.393L828.301 0.268496ZM920.626 72.4185L920.551 52.6935L882.001 52.7685L882.076 72.4935L920.626 72.4185Z" fill="#EA6011"/>
<path d="M11.6253 284.443L103.725 286.318V278.518L63.4503 278.593C25.5003 278.668 7.95025 268.243 7.87525 245.518C7.80025 215.368 24.3752 205.543 75.3002 205.393L144.675 205.243L144.75 252.193L52.3503 254.068V261.043C71.3253 260.968 86.8503 261.418 99.5253 262.168C139.8 264.718 149.1 271.468 149.175 298.543C149.25 324.193 134.175 336.493 102.375 336.568L11.7753 336.718L11.6253 284.443Z" fill="#EA6011"/>
<path d="M201.451 259.243L159.151 259.318L159.076 205.168L291.976 204.868L292.051 259.018L249.751 259.093L249.901 336.193L201.526 336.268L201.451 259.243Z" fill="#EA6011"/>
<path d="M306.076 204.943L396.676 204.793C432.376 204.718 444.001 216.193 444.076 251.818C444.151 284.818 427.351 293.893 365.401 293.968H360.976V298.093L441.751 297.943L441.826 335.893L367.351 336.043L353.251 294.043L353.326 336.043L306.301 336.118L306.076 204.943ZM389.626 270.193V252.343L354.751 252.418V270.268L389.626 270.193Z" fill="#EA6011"/>
<path d="M451.5 270.268C451.425 224.143 475.35 201.718 525 201.643C574.425 201.568 598.425 223.843 598.575 269.968C598.65 316.918 574.875 339.718 525.3 339.793C475.65 339.868 451.65 317.218 451.5 270.268ZM545.325 281.744L545.25 258.568L504.6 258.643L504.675 281.818L545.325 281.744Z" fill="#EA6011"/>
<path d="M612.6 204.268L668.625 204.119L699.525 249.119H703.125L703.05 204.043L749.925 203.969L750.225 335.143L694.5 335.293L663.6 292.543H660L660.075 335.369L612.975 335.443L612.6 204.268Z" fill="#EA6011"/>
<path d="M764.25 270.643C764.175 220.393 787.8 201.119 849.6 200.969C864 200.969 880.725 201.719 909 203.744L909.075 253.994L820.875 254.143L820.95 294.344L866.475 294.869L875.325 287.293L835.875 287.369L835.8 264.793L909.075 264.643L909.225 334.994L884.7 335.068L884.625 287.293H884.325L872.175 335.068C858.975 336.493 846.6 337.393 835.425 337.393C783.225 337.393 764.325 319.843 764.25 270.643Z" fill="#EA6011"/>
<path d="M924.451 203.668L1045.5 203.443L1045.58 244.468L972.451 244.618V253.468L1042.73 253.318L1042.8 283.468L972.526 283.618V293.893L1045.65 293.743L1045.73 334.768L924.676 334.993L924.451 203.668Z" fill="#EA6011"/>
<path d="M1066.43 203.369L1157.03 203.219C1192.73 203.144 1204.35 214.619 1204.43 250.244C1204.5 283.244 1187.7 292.318 1125.75 292.393H1121.33V296.518L1202.1 296.369L1202.18 334.318L1127.7 334.469L1113.6 292.469L1113.68 334.469L1066.65 334.543L1066.43 203.369ZM1149.9 268.619V250.768L1115.03 250.844V268.693L1149.9 268.619Z" fill="#EA6011"/>
<path d="M1045.5 202.393L231.75 205.393L227.85 201.568L939.45 200.143L1045.5 202.393Z" fill="#005BAC"/>
<path d="M269.7 176.893C269.7 176.893 269.7 177.718 269.625 178.168C269.175 185.818 268.725 188.818 267.75 189.943C267.075 190.693 266.4 190.918 265.35 191.068C264.45 191.143 262.875 191.218 261.3 191.068C261.3 190.243 260.85 188.968 260.4 188.143C261.9 188.293 263.325 188.293 263.925 188.293C264.45 188.293 264.825 188.293 265.125 187.918C265.725 187.318 266.1 185.068 266.475 179.743H258.225C258.675 177.043 259.275 172.693 259.5 169.393H266.4V164.443H258.675V161.518H269.325V172.318H262.05C261.9 173.893 261.675 175.468 261.525 176.893H269.7ZM287.175 191.518C286.95 190.843 286.65 190.168 286.275 189.343C280.5 189.793 274.5 190.243 270.3 190.543L269.85 187.393C272.025 187.318 274.875 187.168 277.875 186.943V182.368H271.125V173.068H277.875V169.993H280.875V173.068H287.85V182.368H280.875V186.793L284.7 186.568C284.175 185.668 283.575 184.693 283.05 183.868L285.675 182.743C287.4 185.068 289.125 188.218 289.875 190.243L287.175 191.518ZM286.875 171.418C286.5 170.743 286.05 169.918 285.525 169.093C273.975 170.068 272.475 170.218 271.5 170.593C271.35 169.993 270.75 168.643 270.375 167.893C270.975 167.743 271.575 167.218 272.175 166.468C272.85 165.643 275.025 162.793 276.3 159.943L279.6 160.768C278.25 163.168 276.525 165.568 274.8 167.518L283.65 166.843C282.9 165.868 282.075 164.968 281.325 164.068L283.575 162.718C285.675 164.893 288.15 167.893 289.2 169.918L286.875 171.418ZM277.95 179.818V175.693H273.975V179.818H277.95ZM280.95 175.693V179.818H285V175.693H280.95Z" fill="#005BAC"/>
<path d="M324.6 172.543C326.925 179.743 331.275 185.518 337.8 188.218C336.975 188.893 335.925 190.243 335.4 191.218C328.95 188.218 324.825 182.668 322.125 175.318C320.4 181.543 316.65 187.543 308.85 191.218C308.325 190.393 307.275 189.193 306.375 188.518C314.55 184.918 317.925 178.768 319.275 172.468H307.05V169.168H319.875C320.325 165.718 320.25 162.418 320.325 159.643H323.775C323.775 162.418 323.7 165.718 323.325 169.168H337.2V172.468H324.6V172.543Z" fill="#005BAC"/>
<path d="M372.225 187.618C373.275 187.693 374.475 187.768 375.75 187.768C377.25 187.768 384.15 187.768 386.175 187.768C385.725 188.518 385.275 189.868 385.05 190.768H375.525C368.925 190.768 364.575 189.793 361.725 185.443C360.45 187.918 358.725 189.943 356.625 191.443C356.175 190.843 354.9 189.718 354.225 189.193C357.75 186.943 359.85 183.193 360.75 178.393L363.975 178.843C363.75 179.968 363.45 181.093 363.15 182.068C364.425 184.843 366.3 186.343 369 187.093V177.418H355.2V174.568H385.35V177.418H372.15V180.718H383.1V183.493H372.15V187.618H372.225ZM381.825 172.543H358.65V160.993H381.825V172.543ZM378.6 163.393H361.725V165.718H378.6V163.393ZM378.6 167.893H361.725V170.143H378.6V167.893Z" fill="#005BAC"/>
<path d="M434.325 173.443V176.968H402.975V173.443H434.325Z" fill="#005BAC"/>
<path d="M462.375 181.093C461.85 180.118 460.725 178.543 459.675 177.118V191.293H456.6V177.343C455.325 180.493 453.75 183.418 452.175 185.368C451.875 184.468 451.125 183.193 450.6 182.368C452.625 180.043 454.875 175.918 456.15 172.243H451.275V169.243H456.6V164.593C455.025 164.968 453.45 165.193 451.95 165.418C451.8 164.668 451.425 163.618 451.05 162.943C454.875 162.343 459.225 161.293 461.775 160.168L463.95 162.643C462.675 163.093 461.25 163.543 459.675 163.993V169.318H463.725V172.318H459.675V173.893C460.65 174.718 463.575 177.718 464.25 178.543L462.375 181.093ZM482.7 188.143V190.693H462.15V188.143H471.225V185.893H464.025V183.418H471.225V181.318H464.4V170.143H471.225V168.193H463.125V165.643H471.225V163.693C468.825 163.843 466.5 163.918 464.325 163.993C464.25 163.318 463.875 162.268 463.575 161.593C469.275 161.368 476.1 160.843 480.075 160.018L481.95 162.343C479.85 162.793 477.15 163.168 474.3 163.393V165.568H481.95V168.118H474.3V170.068H481.35V181.318H474.3V183.418H481.5V185.893H474.3V188.143H482.7ZM467.25 174.718H471.3V172.393H467.25V174.718ZM471.225 179.068V176.743H467.25V179.068H471.225ZM474.375 172.468V174.793H478.5V172.468H474.375ZM478.5 176.743H474.375V179.068H478.5V176.743Z" fill="#005BAC"/>
<path d="M509.024 171.193C506.099 172.393 503.099 173.743 500.624 174.643L499.424 172.018C501.749 171.268 505.124 170.068 508.499 168.868L509.024 171.193ZM516.674 174.568C516.224 175.468 515.699 176.368 515.249 177.193H526.349V191.443H522.974V190.168H507.224V191.443H503.999V177.193H512.024C512.399 176.368 512.774 175.393 512.999 174.568C512.849 174.793 512.549 174.943 512.249 175.093C511.274 175.543 509.849 175.468 507.749 175.468C507.599 174.718 507.299 173.818 506.924 173.143C508.274 173.143 509.624 173.143 509.999 173.143C510.449 173.143 510.524 172.993 510.524 172.693V163.918H500.099V161.368H513.449V172.618C513.449 173.218 513.374 173.668 513.299 173.968L516.674 174.568ZM505.874 169.018C505.049 168.043 503.099 166.693 501.524 165.793L503.099 163.918C504.674 164.743 506.624 166.018 507.524 166.993L505.874 169.018ZM522.974 179.593H507.224V182.368H522.974V179.593ZM522.974 187.618V184.768H507.224V187.618H522.974ZM514.799 171.418C517.274 170.668 520.799 169.468 524.324 168.193L524.849 170.518C521.774 171.718 518.474 172.918 515.924 173.818L514.799 171.418ZM528.974 172.618C528.974 174.043 528.674 174.718 527.624 175.168C526.649 175.618 525.074 175.618 522.824 175.618C522.674 174.868 522.374 173.818 521.999 173.068C523.424 173.143 524.999 173.143 525.374 173.143C525.824 173.143 525.899 172.993 525.899 172.618V163.918H515.549V161.368H528.899V172.618H528.974ZM520.949 169.018C520.049 168.043 518.024 166.693 516.449 165.793L518.024 163.918C519.599 164.668 521.624 165.943 522.599 166.918L520.949 169.018Z" fill="#005BAC"/>
<path d="M550.574 166.619C550.574 169.694 550.124 173.669 548.999 175.994L547.049 175.168C548.099 173.068 548.549 169.243 548.624 166.318L550.574 166.619ZM551.399 159.719H554.324V191.293H551.399V159.719ZM556.274 165.418C557.099 167.668 557.774 170.519 557.924 172.244L555.899 172.918C555.824 171.118 555.224 168.193 554.399 165.943L556.274 165.418ZM572.324 185.893C574.799 187.093 577.499 188.444 579.149 189.494L576.599 191.369C575.024 190.244 572.249 188.593 569.774 187.393L571.499 185.893H563.774L566.474 186.793C564.449 188.668 561.224 190.393 558.449 191.443C557.999 190.843 556.949 189.644 556.274 189.119C558.974 188.369 561.824 187.168 563.549 185.818H559.499V172.094H576.524V185.818H572.324V185.893ZM560.024 167.219H557.249V164.443H560.249L560.624 160.918H576.374L576.149 164.443H579.074V167.219H575.999L575.774 170.818H559.649L560.024 167.219ZM562.499 176.068H573.374V174.268H562.499V176.068ZM562.499 179.969H573.374V178.168H562.499V179.969ZM562.499 183.793H573.374V181.994H562.499V183.793ZM562.649 168.643H566.324C566.399 168.118 566.474 167.444 566.474 166.844H562.799L562.649 168.643ZM563.174 163.018L563.024 164.744H566.624C566.624 164.144 566.699 163.543 566.699 163.018H563.174ZM572.999 168.643L573.074 166.844H569.099C569.024 167.519 568.949 168.118 568.949 168.643H572.999ZM573.374 163.018H569.474L569.399 164.744H573.299L573.374 163.018Z" fill="#005BAC"/>
<path d="M599.1 180.343C601.725 179.368 603.3 177.793 603.45 175.693C603.3 175.693 603.15 175.693 603 175.693C601.425 175.693 600.075 174.718 600.075 172.918C600.075 171.193 601.425 170.143 603 170.143C605.175 170.143 606.3 171.868 606.3 174.418C606.3 178.243 603.9 181.168 599.925 182.443L599.1 180.343Z" fill="#005BAC"/>
<path d="M658.049 177.193V180.343H627.074V177.193H634.724V169.768H628.349V166.693H634.724V160.018H638.024V166.693H646.949V160.018H650.324V166.693H656.924V169.768H650.324V177.193H658.049ZM639.674 183.343C637.199 186.268 633.374 189.418 629.999 191.368C629.324 190.693 628.199 189.643 627.449 189.118C630.749 187.393 634.499 184.468 636.374 181.993L639.674 183.343ZM638.024 177.193H646.949V169.768H638.024V177.193ZM648.074 181.918C651.149 184.168 655.349 187.393 657.599 189.493L654.524 191.368C652.574 189.343 648.449 185.968 645.299 183.643L648.074 181.918Z" fill="#005BAC"/>
<path d="M687.6 169.693C687.525 173.443 687 177.943 685.05 182.218C686.775 183.718 688.275 185.218 689.25 186.418L687.15 189.118C686.25 187.993 684.975 186.568 683.475 185.218C681.975 187.468 679.95 189.568 677.325 191.518C676.875 190.843 675.75 189.793 675.075 189.268C677.775 187.393 679.725 185.293 681.15 183.043C679.35 181.393 677.4 179.818 675.75 178.393C676.425 176.293 677.025 173.368 677.625 170.368L675.225 170.518L674.85 167.443L678.15 167.293C678.525 164.743 678.9 162.118 679.05 159.793L682.2 159.943C681.975 162.193 681.6 164.593 681.225 167.143L684.675 166.993V164.593H687.675V166.768L689.625 166.693V169.543L687.6 169.693ZM680.625 170.143C680.175 172.693 679.575 175.243 679.05 177.343C680.175 178.168 681.3 179.143 682.425 180.118C684 176.518 684.45 172.918 684.525 169.843L680.625 170.143ZM706.575 177.118H699.3V187.768C699.3 189.493 698.925 190.393 697.65 190.843C696.45 191.293 694.65 191.368 692.025 191.368C691.875 190.468 691.35 189.193 690.9 188.293C692.775 188.368 694.725 188.368 695.25 188.293C695.775 188.293 696 188.143 696 187.618V177.043H688.35V173.968H696V170.293C697.65 168.868 699.3 166.843 700.575 164.893H689.85V161.968H702.825L703.575 161.818L705.75 163.393C704.1 165.943 701.775 168.868 699.3 170.968V173.968H706.575V177.118Z" fill="#005BAC"/>
<path d="M740.924 187.618C741.974 187.693 743.174 187.768 744.449 187.768C745.949 187.768 752.849 187.768 754.874 187.768C754.424 188.518 753.974 189.868 753.749 190.768H744.224C737.624 190.768 733.274 189.793 730.424 185.443C729.149 187.918 727.424 189.943 725.324 191.443C724.874 190.843 723.599 189.718 722.924 189.193C726.449 186.943 728.549 183.193 729.449 178.393L732.674 178.843C732.449 179.968 732.149 181.093 731.849 182.068C733.124 184.843 734.999 186.343 737.699 187.093V177.418H723.899V174.568H754.049V177.418H740.849V180.718H751.799V183.493H740.849V187.618H740.924ZM750.524 172.543H727.349V160.993H750.524V172.543ZM747.299 163.393H730.424V165.718H747.299V163.393ZM747.299 167.893H730.424V170.143H747.299V167.893Z" fill="#005BAC"/>
<path d="M802.95 173.443V176.968H771.6V173.443H802.95Z" fill="#005BAC"/>
<path d="M831.074 181.093C830.549 180.118 829.424 178.543 828.374 177.118V191.293H825.299V177.343C824.024 180.493 822.449 183.418 820.874 185.368C820.574 184.468 819.824 183.193 819.299 182.368C821.324 180.043 823.574 175.918 824.849 172.243H819.974V169.243H825.299V164.593C823.724 164.968 822.149 165.193 820.649 165.418C820.499 164.668 820.124 163.618 819.749 162.943C823.574 162.343 827.924 161.293 830.474 160.168L832.649 162.643C831.374 163.093 829.949 163.543 828.374 163.993V169.318H832.424V172.318H828.374V173.893C829.349 174.718 832.274 177.718 832.949 178.543L831.074 181.093ZM851.399 188.143V190.693H830.849V188.143H839.924V185.893H832.724V183.418H839.924V181.318H833.099V170.143H839.924V168.193H831.824V165.643H839.924V163.693C837.524 163.843 835.199 163.918 833.024 163.993C832.949 163.318 832.574 162.268 832.274 161.593C837.974 161.368 844.799 160.843 848.774 160.018L850.649 162.343C848.549 162.793 845.849 163.168 842.999 163.393V165.568H850.649V168.118H842.999V170.068H850.049V181.318H842.999V183.418H850.199V185.893H842.999V188.143H851.399ZM835.874 174.718H839.924V172.393H835.874V174.718ZM839.924 179.068V176.743H835.874V179.068H839.924ZM842.999 172.468V174.793H847.124V172.468H842.999ZM847.199 176.743H843.074V179.068H847.199V176.743Z" fill="#005BAC"/>
<path d="M868.35 188.968C869.55 187.393 870.525 184.843 871.05 182.818L873.825 183.868C873.15 185.968 872.325 188.668 871.2 190.393L868.35 188.968ZM882.3 168.118C882 167.668 881.7 167.068 881.25 166.393C871.35 167.293 870.075 167.443 869.325 167.743C869.175 167.218 868.725 165.868 868.425 165.118C868.95 165.043 869.55 164.668 870.225 164.143C870.9 163.618 873.15 161.593 874.575 159.493L877.5 160.393C876.225 161.968 874.65 163.393 873.225 164.593L879.75 164.143C879.225 163.468 878.625 162.793 878.1 162.193L880.275 160.993C881.85 162.718 883.725 165.118 884.625 166.618L882.3 168.118ZM882.375 179.368C882.375 180.643 882.15 181.168 881.25 181.618C880.425 181.993 879.075 181.993 877.125 181.993C876.975 181.318 876.6 180.418 876.3 179.818C877.575 179.818 878.775 179.818 879.075 179.818C879.45 179.818 879.6 179.743 879.6 179.368V177.043C877.5 177.793 875.4 178.618 873.525 179.293L872.7 177.418C872.4 179.218 871.875 181.018 870.6 182.443C870.15 181.918 868.95 181.018 868.35 180.718C870.075 178.693 870.225 176.068 870.225 173.893V168.568H882.3V179.368H882.375ZM873.075 173.893C873.075 174.793 873.075 175.843 872.925 176.893C874.725 176.443 877.125 175.768 879.675 175.093V170.818H873.075V173.893ZM874.35 171.568C876 172.168 878.175 172.993 879.45 173.668L878.175 175.393C877.05 174.793 874.8 173.743 873.075 173.068L874.35 171.568ZM887.625 188.218C889.2 188.218 889.5 187.768 889.65 184.693C890.325 185.143 891.6 185.593 892.35 185.743C891.975 189.793 891.075 190.768 887.85 190.768H880.95C876.825 190.768 875.775 190.018 875.775 187.243V183.343H878.85V187.243C878.85 188.068 879.225 188.218 881.175 188.218H887.625ZM884.925 186.793C884.175 185.743 882.75 183.868 881.55 182.593L883.725 181.168C884.925 182.443 886.425 184.168 887.175 185.218L884.925 186.793ZM889.575 170.068C886.425 170.068 885.675 169.018 885.675 166.168V160.018H888.675V162.343H896.925V164.818H888.675V166.243C888.675 167.218 888.825 167.593 889.8 167.593H895.05C895.875 167.593 897.225 167.518 897.9 167.368C897.975 168.193 898.05 169.243 898.2 169.918C897.675 170.068 896.325 170.143 895.2 170.143H889.575V170.068ZM889.95 181.693C886.5 181.693 885.675 180.943 885.675 178.168V171.118H888.675V173.593H896.925V176.068H888.675V178.168C888.675 179.068 888.9 179.143 890.325 179.143H894.9C895.875 179.143 896.175 178.843 896.25 177.043C896.85 177.493 898.05 177.868 898.875 178.093C898.5 181.018 897.675 181.693 895.2 181.693H889.95ZM895.875 182.743C896.85 184.693 898.05 187.318 898.575 188.893L895.65 189.868C895.2 188.218 894.075 185.593 893.1 183.493L895.875 182.743Z" fill="#005BAC"/>
<path d="M922.125 172.093C922.125 177.643 921.675 185.818 918.825 191.293C918.15 190.843 916.725 190.093 915.9 189.868C918.675 184.693 918.9 177.268 918.9 172.093V162.943H931.875C931.5 162.043 931.125 161.068 930.75 160.318L933.975 159.568C934.575 160.618 935.175 161.893 935.55 162.943H947.175V165.943H922.05V172.093H922.125ZM944.85 180.268C943.35 183.118 941.025 185.218 938.175 186.793C941.025 187.693 944.25 188.218 947.775 188.518C947.1 189.193 946.35 190.468 945.9 191.293C941.7 190.843 937.8 189.943 934.5 188.518C931.05 189.793 927.075 190.618 922.95 191.068C922.725 190.243 922.125 189.043 921.675 188.368C924.975 188.068 928.2 187.618 931.125 186.718C929.175 185.518 927.525 184.093 926.175 182.368L927.525 181.843H923.325V179.293H942.3L942.825 179.218L944.85 180.268ZM928.05 177.493V172.018H922.95V169.468H928.05V166.843H931.05V169.468H938.475V166.843H941.625V169.468H946.875V172.018H941.625V177.493H928.05ZM929.4 181.918C930.675 183.343 932.475 184.543 934.65 185.593C936.825 184.618 938.7 183.418 940.125 181.918H929.4ZM931.05 172.018V175.018H938.475V172.018H931.05Z" fill="#005BAC"/>
<path d="M977.025 175.543C977.025 178.543 974.625 180.943 971.625 180.943C968.625 180.943 966.225 178.543 966.225 175.543C966.225 172.543 968.625 170.143 971.625 170.143C974.625 170.218 977.025 172.618 977.025 175.543ZM974.925 175.543C974.925 173.743 973.425 172.243 971.625 172.243C969.825 172.243 968.325 173.743 968.325 175.543C968.325 177.343 969.825 178.843 971.625 178.843C973.5 178.843 974.925 177.418 974.925 175.543Z" fill="#005BAC"/>
<path d="M204.375 205.468L198.225 198.418C193.5 201.943 188.175 206.293 175.275 206.368C152.475 206.443 142.5 195.193 142.5 176.293C142.5 165.118 150.6 156.868 157.8 152.068C154.425 148.243 148.65 141.793 148.65 132.118C148.65 117.868 158.55 108.043 177 108.043C194.1 108.043 204.075 118.018 204.075 132.343C204.075 139.693 200.55 144.418 194.625 148.918C194.625 148.918 190.275 152.293 187.875 153.943L199.35 167.068C202.05 163.918 203.4 157.693 203.775 153.043L224.7 152.968C223.8 165.568 220.5 175.543 213.45 183.268L232.35 205.393L204.375 205.468ZM169.65 165.493C165.15 168.643 163.95 171.493 163.95 176.068C163.95 182.068 169.275 186.268 175.275 186.268C180.15 186.268 182.625 184.618 184.8 182.743L169.65 165.493ZM177 126.718C172.35 126.718 170.925 129.193 170.925 132.568C170.925 135.418 174.45 138.793 176.1 140.443C177.3 139.618 179.325 138.118 179.325 138.118C181.65 136.468 183.15 134.593 183.15 132.418C183.15 129.193 181.125 126.718 177 126.718Z" fill="#005BAC"/>
<path d="M227.85 202.694C220.575 202.844 213.3 202.919 206.1 203.069L206.025 202.919L200.175 196.319L200.775 196.393C193.8 202.243 186.375 204.494 177.3 204.119C163.725 204.119 151.35 198.643 148.05 184.393C146.1 175.468 146.625 167.444 152.55 160.094C155.175 156.719 158.4 153.869 161.925 151.544L161.775 152.518C160.05 150.643 158.4 148.619 157.05 146.444C149.55 134.894 152.925 118.093 166.35 112.768C170.775 110.968 175.65 110.369 180.45 110.369C175.725 110.519 170.925 111.268 166.575 113.143C156.45 117.493 152.175 128.594 155.025 138.944C156.375 143.819 159.45 147.944 162.825 151.619L163.35 152.143C159.675 154.543 156.375 157.394 153.75 160.844C148.125 167.969 147.825 175.394 149.625 183.944C152.7 197.519 164.55 202.618 177.45 202.768C186.3 203.218 193.425 201.269 200.4 195.569L200.7 195.344L200.925 195.643L206.625 202.393C212.175 202.243 221.025 202.694 227.85 202.694Z" fill="white"/>
<path d="M187.649 181.169C182.174 176.444 177.299 170.968 173.324 164.893C178.799 169.618 183.674 175.094 187.649 181.169Z" fill="white"/>
<path d="M179.4 141.193C181.35 139.018 184.725 137.219 185.25 134.219C185.475 132.869 185.175 131.294 184.275 130.244C183.375 129.119 181.875 128.519 180.225 128.219C181.875 127.919 183.825 128.219 185.1 129.494C187.125 131.369 187.35 134.893 185.55 137.068C184.05 139.018 181.65 140.068 179.4 141.193Z" fill="white"/>
<path d="M223.275 153.793C223.425 163.243 220.725 175.018 213 181.168C214.575 179.218 215.85 177.118 216.9 174.943C220.2 168.268 221.85 160.993 223.275 153.793Z" fill="white"/>
</svg>
