<svg width="60" height="60" viewBox="0 0 60 60" fill="none" xmlns="http://www.w3.org/2000/svg">
<rect x="0.75" y="0.75" width="58.5" height="58.5" rx="11.25" fill="#E6F4FE"/>
<rect x="0.75" y="0.75" width="58.5" height="58.5" rx="11.25" stroke="#005BAC" stroke-width="1.5"/>
<path d="M22.5068 22.9592C20.8696 24.7129 18.2153 24.7129 16.5782 22.9592C15.7596 22.0823 14.4325 22.0823 13.6139 22.9592C12.7954 23.836 12.7954 25.2576 13.6139 26.1345C16.8882 29.642 22.1968 29.642 25.4712 26.1345L22.5068 22.9592Z" stroke="#005BAC" stroke-width="1.58072" stroke-miterlimit="10"/>
<path d="M27.7468 38.0183C27.7468 39.2584 26.8084 40.2637 25.6508 40.2637C24.4932 40.2637 23.5547 39.2584 23.5547 38.0183C23.5547 36.7783 24.4932 35.773 25.6508 35.773C26.8084 35.773 27.7468 36.7783 27.7468 38.0183Z" stroke="#005BAC" stroke-width="1.58072" stroke-miterlimit="10"/>
<path d="M36.1297 38.0186C36.1297 39.2586 35.1912 40.2639 34.0336 40.2639C32.876 40.2639 31.9375 39.2586 31.9375 38.0186C31.9375 36.7786 32.876 35.7733 34.0336 35.7733C35.1912 35.7733 36.1297 36.7786 36.1297 38.0186Z" stroke="#005BAC" stroke-width="1.58072" stroke-miterlimit="10"/>
<path d="M44.5125 38.0186C44.5125 39.2586 43.574 40.2639 42.4164 40.2639C41.2588 40.2639 40.3203 39.2586 40.3203 38.0186C40.3203 36.7786 41.2588 35.7733 42.4164 35.7733C43.574 35.7733 44.5125 36.7786 44.5125 38.0186Z" stroke="#005BAC" stroke-width="1.58072" stroke-miterlimit="10"/>
<path d="M29.837 46.9998H21.3828C21.3828 44.5298 23.3392 42.5091 25.6448 42.5091C27.9504 42.5091 29.837 44.5298 29.837 46.9998Z" stroke="#005BAC" stroke-width="1.58072" stroke-miterlimit="10"/>
<path d="M38.2241 46.9998H29.8398C29.8398 44.5298 31.7264 42.5091 34.032 42.5091C36.3376 42.5091 38.2241 44.5298 38.2241 46.9998Z" stroke="#005BAC" stroke-width="1.58072" stroke-miterlimit="10"/>
<path d="M46.6807 46.9998H38.2266C38.2266 44.5298 40.1131 42.5091 42.4187 42.5091C44.7243 42.5091 46.6807 44.5298 46.6807 46.9998Z" stroke="#005BAC" stroke-width="1.58072" stroke-miterlimit="10"/>
<path d="M17.1922 17.8106C17.1922 19.0506 16.2537 20.0559 15.0961 20.0559C13.9385 20.0559 13 19.0506 13 17.8106C13 16.5706 13.9385 15.5652 15.0961 15.5652C16.2537 15.5652 17.1922 16.5706 17.1922 17.8106Z" stroke="#005BAC" stroke-width="1.58072" stroke-miterlimit="10"/>
<path d="M17.1922 28.4066V47H13V24.5467" stroke="#005BAC" stroke-width="1.58072" stroke-miterlimit="10"/>
<path d="M21.3828 23.8188V13.3198H46.6755V31.2825H21.3828V28.5465" stroke="#005BAC" stroke-width="1.58072" stroke-miterlimit="10"/>
<path d="M23.7383 24.2744L29.7722 17.8109" stroke="#005BAC" stroke-width="1.58072" stroke-miterlimit="10"/>
<path d="M41.3683 18.9331L36.1281 24.5464L34.032 22.3011L29.8398 26.7917" stroke="#005BAC" stroke-width="1.58072" stroke-miterlimit="10"/>
<path d="M37.1797 18.9334H41.3718V23.4241" stroke="#005BAC" stroke-width="1.58072" stroke-miterlimit="10"/>
<path d="M13 33.5278H17.1922" stroke="#005BAC" stroke-width="1.58072" stroke-miterlimit="10"/>
</svg>
