<svg width="139" height="145" viewBox="0 0 139 145" fill="none" xmlns="http://www.w3.org/2000/svg">
<g clip-path="url(#clip0_79_232)">
<path d="M69.4392 1.7002C48.4592 1.7002 31.4492 19.2502 31.4492 40.9002L31.4792 81.6102H107.439V40.9002C107.439 19.2502 90.4292 1.7002 69.4392 1.7002ZM93.3692 42.9402C93.3692 64.2202 82.6592 81.4602 69.4392 81.4602C56.2192 81.4602 45.5092 64.2102 45.5092 42.9402C45.5092 36.4502 47.9092 30.5502 51.7992 26.1002C56.6192 36.6802 68.8492 44.1902 83.1692 44.1902C86.7192 44.1902 90.1492 43.7302 93.3592 42.8702C93.3592 42.8902 93.3592 42.9202 93.3592 42.9402H93.3692Z" fill="#8AD58B" stroke="#8AD58B" stroke-width="3.4" stroke-linecap="round" stroke-linejoin="round"/>
<path d="M107.429 81.6002V40.9002C107.429 19.2502 90.4195 1.7002 69.4295 1.7002C48.4395 1.7002 31.4395 19.2502 31.4395 40.9002L31.4695 81.6102" stroke="white" stroke-width="3.4" stroke-linecap="round" stroke-linejoin="round"/>
<path d="M1.69922 142.55L4.23922 110.89C4.23922 103.04 9.17922 96.8502 16.3092 95.7102L46.4292 91.1802C48.6292 101.98 56.7292 111.21 69.4392 111.21C82.1492 111.21 90.2492 101.98 92.4492 91.1902L122.569 95.7102C129.699 96.8502 134.639 103.78 134.649 111L137.189 142.66L1.70922 142.54L1.69922 142.55Z" fill="#8AD58B" stroke="#8AD58B" stroke-width="3.4" stroke-linecap="round" stroke-linejoin="round"/>
<path d="M137.189 142.67L134.649 111.01C134.649 103.78 129.699 96.8599 122.569 95.7199L92.4492 91.1999C90.2492 101.99 82.1492 111.22 69.4392 111.22C56.7292 111.22 48.6292 101.99 46.4292 91.1899L16.3092 95.7199C9.17922 96.8599 4.23922 103.05 4.23922 110.9L1.69922 142.56" stroke="white" stroke-width="3.4" stroke-linecap="round" stroke-linejoin="round"/>
<path d="M69.4395 81.4601C82.6495 81.4601 93.3695 64.2101 93.3695 42.9401C93.3695 42.9401 93.3695 42.8901 93.3695 42.8701C90.1495 43.7301 86.7295 44.1901 83.1795 44.1901C68.8595 44.1901 56.6295 36.6801 51.8095 26.1001C47.9195 30.5501 45.5195 36.4501 45.5195 42.9401C45.5195 64.2201 56.2295 81.4601 69.4495 81.4601H69.4395Z" stroke="white" stroke-width="3.4" stroke-linecap="round" stroke-linejoin="round"/>
<path d="M99.9492 126.33H115.929" stroke="white" stroke-width="3.4" stroke-linecap="round" stroke-linejoin="round"/>
</g>
<defs>
<clipPath id="clip0_79_232">
<rect width="138.89" height="144.37" fill="white"/>
</clipPath>
</defs>
</svg>
